CharterBT-Bold.sfdir
StartChar: exclam
Encoding: 33 33 1
Width: 340
Flags: MW
HStem: -7 152<150 190.5> 198 486<146.5 193.5 146.5 197 144 193.5>
VStem: 95 150<47 89.5>
LayerCount: 2
Fore
SplineSet
170 145 m 0
 211 145 245 111 245 68 c 0
 245 26 211 -7 170 -7 c 0
 130 -7 95 26 95 68 c 0
 95 111 129 145 170 145 c 0
242 555 m 2
 197 198 l 1
 144 198 l 1
 99 553 l 2
 96 577 94 595 94 605 c 0
 94 656 123 684 170 684 c 0
 217 684 246 655 246 602 c 0
 246 592 245 576 242 555 c 2
EndSplineSet
EndChar
StartChar: quotedbl
Encoding: 34 34 2
Width: 339
Flags: MW
HStem: 418 296<78 78 78 97 242 261 242 242>
VStem: 41 93<658 678> 205 94<658.5 678>
LayerCount: 2
Fore
SplineSet
78 418 m 1
 42 642 l 2
 41 649 41 655 41 661 c 0
 41 695 58 714 87 714 c 0
 117 714 134 696 134 661 c 0
 134 655 134 648 133 642 c 2
 97 418 l 1
 78 418 l 1
242 418 m 1
 206 642 l 2
 205 649 205 655 205 661 c 0
 205 695 223 714 252 714 c 0
 281 714 299 695 299 662 c 0
 299 655 298 649 297 642 c 2
 261 418 l 1
 242 418 l 1
EndSplineSet
EndChar
StartChar: numbersign
Encoding: 35 35 3
Width: 736
Flags: MW
HStem: -24 20 221 60<56 193 56 212 279 389 56 259 477 634> 416 62<105 256 105 276 343 454 105 323 541 675> 690 20<354 354>
VStem: 56 619<221 478 281 478>
LayerCount: 2
Fore
SplineSet
354 710 m 1
 417 692 l 1
 343 478 l 1
 476 478 l 1
 552 709 l 1
 615 691 l 1
 541 478 l 1
 675 478 l 1
 675 416 l 1
 521 416 l 1
 477 281 l 1
 634 281 l 1
 634 221 l 1
 456 221 l 1
 378 -23 l 1
 314 -7 l 1
 389 221 l 1
 259 221 l 1
 179 -24 l 1
 116 -6 l 1
 193 221 l 1
 56 221 l 1
 56 281 l 1
 212 281 l 1
 256 416 l 1
 105 416 l 1
 105 478 l 1
 276 478 l 1
 354 710 l 1
323 416 m 1
 279 281 l 1
 408 281 l 1
 454 416 l 1
 323 416 l 1
EndSplineSet
EndChar
StartChar: dollar
Encoding: 36 36 4
Width: 581
Flags: MW
HStem: -102 20 1 58<266 266 266 321> 607 61<271 271> 722 20<271 324 324 324>
VStem: 70 117<485.5 529.5> 266 55<-102 1 -102 1> 415 118<151 196>
LayerCount: 2
Fore
SplineSet
271 742 m 1
 324 742 l 1
 324 669 l 1
 379 668 438 658 500 641 c 1
 500 476 l 1
 435 476 l 1
 417 588 l 1
 396 601 365 608 324 611 c 1
 324 397 l 1
 466 360 533 302 533 202 c 0
 533 100 455 20 321 1 c 1
 321 -102 l 1
 266 -102 l 1
 266 1 l 1
 185 4 117 14 61 31 c 1
 61 204 l 1
 128 204 l 1
 148 86 l 1
 183 68 222 60 266 59 c 1
 266 287 l 1
 133 322 70 381 70 480 c 0
 70 579 142 651 271 668 c 1
 271 742 l 1
271 607 m 1
 217 596 187 560 187 510 c 0
 187 461 215 428 271 411 c 1
 271 607 l 1
322 273 m 1
 322 63 l 1
 380 72 415 114 415 170 c 0
 415 222 385 256 322 273 c 1
EndSplineSet
EndChar
StartChar: percent
Encoding: 37 37 5
Width: 888
Flags: W
HStem: -12 45<671.5 717 671.5 747> 263 46<177.5 222.5 177.5 254> 363 44<672 716.5> 638 45<178 222.5>
VStem: 37 95<419 528.5 419 540> 270 100<419 528.5> 529 96<143.5 252.5 143.5 264> 763 100<143 252.5>
LayerCount: 2
Fore
SplineSet
203 683 m 0
 304 683 370 605 370 474 c 0
 370 342 305 263 203 263 c 0
 101 263 37 341 37 474 c 0
 37 606 102 683 203 683 c 0
621 671 m 1
 691 671 l 1
 273 0 l 1
 203 0 l 1
 621 671 l 1
200 638 m 0xff
 156 638 132 583 132 474 c 0
 132 364 155 309 200 309 c 0
 245 309 270 364 270 474 c 0
 270 583 245 638 200 638 c 0xff
696 407 m 0
 797 407 863 328 863 198 c 0
 863 66 798 -12 696 -12 c 0
 594 -12 529 65 529 198 c 0
 529 330 595 407 696 407 c 0
694 363 m 0
 650 363 625 307 625 198 c 0
 625 89 649 33 694 33 c 0
 740 33 763 88 763 198 c 0
 763 307 739 363 694 363 c 0
EndSplineSet
EndChar
StartChar: ampersand
Encoding: 38 38 6
Width: 741
Flags: W
HStem: -12 12 48 21 335 46<502 711 502 711> 627 57<281 329.5>
VStem: 53 126<178.5 227> 101 122<519 563.5> 388 116<495 554>
LayerCount: 2
Fore
SplineSet
317 396 m 1x16
 366 433 388 469 388 521 c 0
 388 587 355 627 304 627 c 0
 258 627 223 592 223 543 c 0
 223 495 257 452 317 396 c 1x16
355 361 m 1
 512 196 l 1
 540 232 558 270 567 309 c 1
 555 326 l 1
 502 335 l 1
 502 381 l 1
 711 381 l 1
 711 335 l 1
 641 322 l 1
 619 256 589 201 550 155 c 1
 641 55 l 1
 724 48 l 1
 724 0 l 1
 514 0 l 1
 514 24 l 1
 472 72 l 1
 408 16 339 -12 263 -12 c 0
 139 -12 53 73 53 185 c 0xe8
 53 269 99 327 192 357 c 1
 131 406 101 457 101 515 c 0
 101 612 185 684 311 684 c 0
 430 684 504 618 504 530 c 0
 504 448 456 394 355 361 c 1
233 324 m 1xfe
 198 297 179 263 179 225 c 0
 179 132 239 69 326 69 c 0
 365 69 400 83 433 112 c 1
 233 324 l 1xfe
EndSplineSet
EndChar
StartChar: parenleft
Encoding: 40 40 8
Width: 428
Flags: MW
HStem: -142 51<386 386> 667 51<386 386>
VStem: 91 118<165.5 404.5 165.5 421.5>
LayerCount: 2
Fore
SplineSet
386 718 m 1
 386 667 l 1
 261 650 209 525 209 284 c 0
 209 47 265 -77 386 -91 c 1
 386 -142 l 1
 203 -135 91 17 91 285 c 0
 91 558 200 710 386 718 c 1
EndSplineSet
EndChar
StartChar: parenright
Encoding: 41 41 9
Width: 428
Flags: MW
HStem: -142 51<37 37> 667 51<37 37>
VStem: 214 115<169 408.5>
LayerCount: 2
Fore
SplineSet
37 718 m 1
 219 709 329 557 329 288 c 0
 329 18 218 -134 37 -142 c 1
 37 -91 l 1
 161 -75 214 49 214 289 c 0
 214 528 160 653 37 667 c 1
 37 718 l 1
EndSplineSet
EndChar
StartChar: asterisk
Encoding: 42 42 10
Width: 500
Flags: MW
VStem: 53 393<571 571>
LayerCount: 2
Fore
SplineSet
250 718 m 1
 297 657 l 1
 258 532 l 1
 241 532 l 1
 202 657 l 1
 250 718 l 1
374 598 m 1
 446 571 l 1
 403 507 l 1
 273 506 l 1
 268 522 l 1
 374 598 l 1
266 492 m 1
 371 415 l 1
 368 338 l 1
 294 359 l 1
 253 484 l 1
 266 492 l 1
233 493 m 1
 245 483 l 1
 204 359 l 1
 130 338 l 1
 128 415 l 1
 233 493 l 1
125 597 m 1
 232 521 l 1
 227 507 l 1
 96 508 l 1
 53 571 l 1
 125 597 l 1
EndSplineSet
EndChar
StartChar: plus
Encoding: 43 43 11
Width: 833
Flags: MW
HStem: 258 81<124 375 124 375 458 709>
VStem: 375 83<0 258 0 258 339 596>
LayerCount: 2
Fore
SplineSet
458 596 m 1
 458 339 l 1
 709 339 l 1
 709 258 l 1
 458 258 l 1
 458 0 l 1
 375 0 l 1
 375 258 l 1
 124 258 l 1
 124 339 l 1
 375 339 l 1
 375 596 l 1
 458 596 l 1
EndSplineSet
EndChar
StartChar: comma
Encoding: 44 44 12
Width: 289
Flags: MW
HStem: -175 304<31 156>
VStem: 59 161<50 56 -27.5 81.5>
LayerCount: 2
Fore
SplineSet
31 -175 m 1
 31 -129 l 1
 103 -116 142 -72 142 -3 c 0
 142 0 142 4 142 7 c 1
 80 7 l 1
 66 22 59 39 59 61 c 0
 59 102 87 129 128 129 c 0
 184 129 220 89 220 23 c 0
 220 -78 146 -162 31 -175 c 1
EndSplineSet
EndChar
StartChar: hyphen
Encoding: 45 45 13
Width: 326
Flags: MW
HStem: 192 98<36 290 36 290>
VStem: 36 254<192 290 192 290>
LayerCount: 2
Fore
SplineSet
36 290 m 1
 290 290 l 1
 290 192 l 1
 36 192 l 1
 36 290 l 1
EndSplineSet
EndChar
StartChar: period
Encoding: 46 46 14
Width: 289
Flags: MW
HStem: -8 159<122.5 166>
VStem: 66 158<49 93 49 93.5>
LayerCount: 2
Fore
SplineSet
144 151 m 0
 188 151 224 115 224 71 c 0
 224 27 188 -8 144 -8 c 0
 101 -8 66 27 66 71 c 0
 66 116 101 151 144 151 c 0
EndSplineSet
EndChar
StartChar: slash
Encoding: 47 47 15
Width: 491
Flags: MW
HStem: -93 764<-27 471 -27 471>
VStem: -27 498
LayerCount: 2
Fore
SplineSet
396 671 m 1
 471 671 l 1
 48 -93 l 1
 -27 -93 l 1
 396 671 l 1
EndSplineSet
EndChar
StartChar: zero
Encoding: 48 48 16
Width: 581
Flags: MW
HStem: -12 57<254.5 333.5 254.5 370.5> 627 56<255.5 333.5>
VStem: 40 136<241 435 241 445.5> 412 136<239 433>
LayerCount: 2
Fore
SplineSet
293 683 m 0
 448 683 548 555 548 335 c 0
 548 115 448 -12 293 -12 c 0
 139 -12 40 114 40 335 c 0
 40 556 139 683 293 683 c 0
294 627 m 0
 217 627 176 531 176 339 c 0
 176 143 215 45 294 45 c 0
 373 45 412 142 412 336 c 0
 412 530 373 627 294 627 c 0
EndSplineSet
EndChar
StartChar: one
Encoding: 49 49 17
Width: 581
Flags: MW
HStem: 0 50<148 495 148 148> 557 51<109 109> 661 20<325 390 390 390>
VStem: 260 130<74 566 566 566>
LayerCount: 2
Fore
SplineSet
325 681 m 1
 390 681 l 1
 390 70 l 1
 401 54 l 1
 495 50 l 1
 495 0 l 1
 148 0 l 1
 148 50 l 1
 248 56 l 1
 260 74 l 1
 260 566 l 1
 251 578 l 1
 109 557 l 1
 109 608 l 1
 325 681 l 1
EndSplineSet
EndChar
StartChar: two
Encoding: 50 50 18
Width: 581
Flags: MW
HStem: 0 102<173 453 173 532> 619 64<241 288>
VStem: 373 138<424 523.5>
LayerCount: 2
Fore
SplineSet
173 102 m 1
 453 102 l 1
 471 190 l 1
 532 190 l 1
 532 0 l 1
 48 0 l 1
 48 79 l 1
 259 243 373 354 373 479 c 0
 373 568 326 619 250 619 c 0
 232 619 212 615 192 607 c 1
 192 478 l 1
 170 466 149 460 129 460 c 0
 85 460 57 488 57 530 c 0
 57 613 148 683 292 683 c 0
 426 683 511 604 511 488 c 0
 511 360 395 253 173 102 c 1
EndSplineSet
EndChar
StartChar: three
Encoding: 51 51 19
Width: 581
Flags: W
HStem: -11 59<243 291 243 330> 310 66<242 263 211.5 291.5> 618 64<230.5 275.5>
VStem: 363 135<473.5 534> 387 136<148 223.5>
LayerCount: 2
Fore
SplineSet
334 353 m 1x70
 456 344 523 284 523 193 c 0
 523 80 416 -11 244 -11 c 0
 121 -11 42 48 42 114 c 0
 42 153 70 179 113 179 c 0
 125 179 137 176 152 171 c 1
 184 63 l 1
 210 53 233 48 253 48 c 0
 329 48 387 109 387 187 c 0x88
 387 260 334 310 249 310 c 0
 235 310 214 309 187 305 c 1
 187 377 l 1
 197 376 207 376 216 376 c 0
 310 376 363 422 363 499 c 0
 363 569 312 618 239 618 c 0
 222 618 203 614 183 606 c 1
 183 489 l 1
 167 479 151 475 130 475 c 0
 87 475 58 504 58 544 c 0
 58 616 145 682 281 682 c 0
 414 682 498 610 498 513 c 0
 498 434 442 378 334 353 c 1x70
EndSplineSet
EndChar
StartChar: four
Encoding: 52 52 20
Width: 581
Flags: MW
HStem: -31 20 181 79<116 336 116 336 453 566> 657 20<355 453 453 453>
VStem: 336 117<-31 181 -31 181 260 539 539 539>
LayerCount: 2
Fore
SplineSet
355 677 m 1
 453 677 l 1
 453 260 l 1
 566 260 l 1
 566 181 l 1
 453 181 l 1
 453 -31 l 1
 336 -31 l 1
 336 181 l 1
 25 181 l 1
 25 262 l 1
 355 677 l 1
336 539 m 1
 116 260 l 1
 336 260 l 1
 336 539 l 1
EndSplineSet
EndChar
StartChar: five
Encoding: 53 53 21
Width: 581
Flags: MW
HStem: -9 58<240 288.5 240 326.5> 339 81<196.5 367.5> 567 104<177 489 177 177>
VStem: 96 81<398 567 398 671> 392 133<157 238.5>
LayerCount: 2
Fore
SplineSet
96 671 m 1
 489 671 l 1
 489 567 l 1
 177 567 l 1
 177 398 l 1
 221 413 260 420 298 420 c 0
 437 420 525 341 525 224 c 0
 525 90 412 -9 241 -9 c 0
 126 -9 55 45 55 111 c 0
 55 145 85 174 130 174 c 0
 141 174 153 171 167 167 c 1
 201 54 l 1
 217 50 232 49 248 49 c 0
 329 49 392 111 392 194 c 0
 392 283 327 339 217 339 c 0
 176 339 135 334 96 325 c 1
 96 671 l 1
EndSplineSet
EndChar
StartChar: six
Encoding: 54 54 22
Width: 581
Flags: MW
HStem: -13 62<268.5 341.5 268.5 371.5> 372 80<318 328.5> 694 20<469 469>
VStem: 47 132<208 291.5 208 416.5> 421 132<162 263>
LayerCount: 2
Fore
SplineSet
469 714 m 1
 469 640 l 1
 427 644 l 1
 295 634 212 550 187 401 c 1
 237 434 290 452 346 452 c 0
 463 452 553 360 553 233 c 0
 553 88 446 -13 297 -13 c 0
 144 -13 47 100 47 289 c 0
 47 544 210 713 469 714 c 1
181 347 m 1
 180 317 179 296 179 287 c 0
 179 129 228 49 309 49 c 0
 374 49 421 110 421 214 c 0
 421 312 369 372 288 372 c 0
 250 372 214 364 181 347 c 1
EndSplineSet
EndChar
StartChar: seven
Encoding: 55 55 23
Width: 581
Flags: MW
HStem: -34 20 560 111<157 446 157 157>
VStem: 76 479<606 671 606 671 606 671>
LayerCount: 2
Fore
SplineSet
76 671 m 1
 555 671 l 1
 555 606 l 1
 231 -6 l 1
 231 -34 l 1
 124 -34 l 1
 446 560 l 1
 157 560 l 1
 142 467 l 1
 76 467 l 1
 76 671 l 1
EndSplineSet
EndChar
StartChar: eight
Encoding: 56 56 24
Width: 581
Flags: W
HStem: -15 61<255 329 255 364.5> 625 60<265 324.5>
VStem: 42 118<148 214.5 148 218> 71 126<492.5 551> 399 113<477.5 538.5> 412 127<124.5 189>
LayerCount: 2
Fore
SplineSet
347 379 m 1x58
 381 411 399 453 399 502 c 0
 399 575 356 625 293 625 c 0
 237 625 197 582 197 524 c 0
 197 461 246 419 347 379 c 1x58
394 356 m 1
 492 321 539 266 539 182 c 0
 539 67 445 -15 284 -15 c 0
 136 -15 42 69 42 179 c 0xa4
 42 257 89 312 177 338 c 1
 107 370 71 423 71 494 c 0
 71 608 161 685 303 685 c 0
 432 685 512 610 512 511 c 0
 512 444 472 390 394 356 c 1
222 314 m 1xa4
 180 276 160 239 160 190 c 0
 160 106 217 46 293 46 c 0
 365 46 412 90 412 152 c 0
 412 226 350 264 222 314 c 1xa4
EndSplineSet
EndChar
StartChar: nine
Encoding: 57 57 25
Width: 581
Flags: MW
HStem: -53 20 223 76<187.5 332> 624 59<257.5 327.5>
VStem: 42 133<408 511 408 511.5> 415 131<401.5 485.5>
LayerCount: 2
Fore
SplineSet
405 321 m 1
 411 352 415 384 415 419 c 0
 415 552 365 624 290 624 c 0
 225 624 175 562 175 460 c 0
 175 356 228 299 318 299 c 0
 346 299 374 306 405 321 c 1
129 -53 m 1
 102 13 l 1
 147 21 l 1
 274 79 354 157 391 262 c 1
 343 237 295 223 246 223 c 0
 129 223 42 311 42 439 c 0
 42 584 145 683 304 683 c 0
 451 683 546 581 546 419 c 0
 546 213 397 32 129 -53 c 1
EndSplineSet
EndChar
StartChar: colon
Encoding: 58 58 26
Width: 340
Flags: MW
HStem: -8 159<152 194.5> 330 158<151.5 194.5>
VStem: 95 156<49 93.5 387 431>
LayerCount: 2
Fore
SplineSet
173 488 m 0
 216 488 251 453 251 409 c 0
 251 365 216 330 173 330 c 0
 130 330 95 365 95 409 c 0
 95 453 130 488 173 488 c 0
173 151 m 0
 216 151 251 116 251 71 c 0
 251 27 216 -8 173 -8 c 0
 131 -8 95 27 95 71 c 0
 95 116 130 151 173 151 c 0
EndSplineSet
EndChar
StartChar: semicolon
Encoding: 59 59 27
Width: 340
Flags: MW
HStem: -175 304<68 191> 330 158<151.5 194.5>
VStem: 95 159<50 56 -27.5 81.5>
LayerCount: 2
Fore
SplineSet
173 488 m 0
 216 488 251 453 251 409 c 0
 251 365 216 330 173 330 c 0
 130 330 95 365 95 409 c 0
 95 453 130 488 173 488 c 0
68 -175 m 1
 68 -129 l 1
 139 -116 176 -71 176 -1 c 0
 176 1 176 4 176 7 c 1
 116 7 l 1
 102 22 95 39 95 61 c 0
 95 102 122 129 163 129 c 0
 219 129 254 89 254 23 c 0
 254 -78 181 -162 68 -175 c 1
EndSplineSet
EndChar
StartChar: less
Encoding: 60 60 28
Width: 833
Flags: MW
HStem: 23 551<704 704>
VStem: 129 575<23 337 23 337>
LayerCount: 2
Fore
SplineSet
704 484 m 1
 248 298 l 1
 704 112 l 1
 704 23 l 1
 129 259 l 1
 129 337 l 1
 704 574 l 1
 704 484 l 1
EndSplineSet
EndChar
StartChar: greater
Encoding: 62 62 30
Width: 833
Flags: MW
HStem: 23 551<129 129>
VStem: 129 575<23 337 112 337 259 574 259 574>
LayerCount: 2
Fore
SplineSet
704 337 m 1
 704 259 l 1
 129 23 l 1
 129 112 l 1
 585 298 l 1
 129 484 l 1
 129 574 l 1
 704 337 l 1
EndSplineSet
EndChar
StartChar: question
Encoding: 63 63 31
Width: 487
Flags: MW
HStem: -7 152<176 216.5> 625 58<174 177 174 174.5>
VStem: 122 150<47.5 89.5 47 90.5> 307 130<459 538>
LayerCount: 2
Fore
SplineSet
227 284 m 1
 227 193 l 1
 162 193 l 1
 162 328 l 1
 257 361 307 419 307 499 c 0
 307 577 259 625 177 625 c 0
 176 625 175 625 174 625 c 2
 129 512 l 1
 122 511 116 511 109 511 c 0
 62 511 35 534 35 573 c 0
 35 633 103 683 212 683 c 0
 349 683 437 608 437 499 c 0
 437 401 366 329 227 284 c 1
196 145 m 0
 238 145 272 112 272 67 c 0
 272 27 238 -7 195 -7 c 0
 157 -7 122 25 122 70 c 0
 122 111 155 145 196 145 c 0
EndSplineSet
EndChar
StartChar: at
Encoding: 64 64 32
Width: 917
Flags: MW
HStem: -153 55<413.5 513.5> 57 70<354.5 457.5> 444 47<475.5 517> 643 49<473 608>
VStem: 75 76<186 311.5> 266 104<198 249> 802 51<336 451>
LayerCount: 2
Fore
SplineSet
533 442 m 1
 527 443 520 444 514 444 c 0
 435 444 370 356 370 233 c 0
 370 163 395 127 442 127 c 0
 473 127 503 149 533 190 c 1
 569 389 l 1
 533 442 l 1
530 134 m 1
 480 83 435 57 390 57 c 0
 319 57 266 118 266 217 c 0
 266 281 285 340 321 388 c 0
 369 454 441 491 510 491 c 0
 542 491 573 482 606 465 c 1
 623 488 l 1
 691 488 l 1
 678 454 672 419 664 384 c 2
 628 214 l 2
 623 190 620 170 620 152 c 0
 620 133 634 118 654 118 c 0
 680 118 711 135 737 169 c 0
 778 221 802 295 802 369 c 0
 802 533 693 643 523 643 c 0
 423 643 337 609 270 545 c 0
 190 469 151 375 151 259 c 0
 151 43 289 -98 494 -98 c 0
 580 -98 666 -73 748 -25 c 1
 766 -65 l 1
 662 -124 559 -153 468 -153 c 0
 359 -153 261 -114 185 -40 c 0
 112 31 75 127 75 245 c 0
 75 378 123 491 217 578 c 0
 296 651 404 692 523 692 c 0
 722 692 853 563 853 373 c 0
 853 299 835 232 799 176 c 0
 750 99 673 54 609 54 c 0
 556 54 530 81 530 134 c 1
EndSplineSet
EndChar
StartChar: A
Encoding: 65 65 33
Width: 651
Flags: MW
HStem: 0 49<-11 204 -11 -11> 238 56<210 386 210 409 191 386> 658 20<275 380 380 380>
VStem: -11 680<0 49 0 49>
LayerCount: 2
Fore
SplineSet
275 678 m 1
 380 678 l 1
 610 59 l 1
 669 49 l 1
 669 0 l 1
 399 0 l 1
 399 49 l 1
 462 55 l 1
 469 68 l 1
 409 238 l 1
 191 238 l 1
 131 69 l 1
 141 56 l 1
 204 49 l 1
 204 0 l 1
 -11 0 l 1
 -11 49 l 1
 49 58 l 1
 275 678 l 1
297 541 m 1
 210 294 l 1
 386 294 l 1
 297 541 l 1
EndSplineSet
EndChar
StartChar: B
Encoding: 66 66 34
Width: 628
Flags: W
HStem: 0 55<274.5 338> 317 55<292 313 256.5 350> 617 54<88 88 267.5 321>
VStem: 104 130<70 315 373 603 603 603> 413 138<475 541> 450 140<142 232.5>
LayerCount: 2
Fore
SplineSet
29 671 m 1xf4
 329 671 l 2
 477 671 551 618 551 514 c 0x78
 551 436 503 382 408 357 c 1
 525 355 590 294 590 196 c 0
 590 70 502 0 338 0 c 2
 29 0 l 1
 29 49 l 1
 88 54 l 1
 104 70 l 1
 104 603 l 1
 88 617 l 1
 29 622 l 1
 29 671 l 1xf4
234 373 m 1xfc
 243 372 252 372 261 372 c 0
 365 372 413 412 413 502 c 0
 413 580 368 617 274 617 c 0
 261 617 248 616 234 615 c 1
 234 373 l 1xfc
234 57 m 1xf4
 251 56 267 55 282 55 c 0
 398 55 450 94 450 190 c 0
 450 275 400 317 300 317 c 0
 284 317 262 317 234 315 c 1
 234 57 l 1xf4
EndSplineSet
EndChar
StartChar: C
Encoding: 67 67 35
Width: 638
Flags: MW
HStem: -12 63<355 427.5> 618 65<346.5 428>
VStem: 41 147<271 386>
LayerCount: 2
Fore
SplineSet
601 24 m 1
 534 0 464 -12 391 -12 c 0
 319 -12 256 4 207 33 c 0
 103 95 41 207 41 335 c 0
 41 437 77 526 145 591 c 0
 208 652 293 683 397 683 c 0
 466 683 534 670 601 646 c 1
 601 479 l 1
 527 479 l 1
 508 586 l 1
 494 603 l 1
 467 613 441 618 415 618 c 0
 278 618 188 513 188 336 c 0
 188 157 279 51 428 51 c 0
 445 51 465 54 489 60 c 1
 504 75 l 1
 529 196 l 1
 601 196 l 1
 601 24 l 1
EndSplineSet
EndChar
StartChar: D
Encoding: 68 68 36
Width: 716
Flags: MW
HStem: 0 56<238 296 296 321> 615 56<238 238 238 296>
VStem: 106 132<70 601 601 601> 532 149<276 430>
LayerCount: 2
Fore
SplineSet
321 671 m 2
 553 671 681 545 681 335 c 0
 681 217 639 125 558 63 c 0
 496 15 421 0 321 0 c 2
 29 0 l 1
 29 49 l 1
 90 54 l 1
 106 70 l 1
 106 601 l 1
 90 617 l 1
 29 622 l 1
 29 671 l 1
 321 671 l 2
238 615 m 1
 238 56 l 1
 296 56 l 2
 455 56 532 148 532 336 c 0
 532 524 455 615 296 615 c 2
 238 615 l 1
EndSplineSet
EndChar
StartChar: E
Encoding: 69 69 37
Width: 596
Flags: MW
HStem: 0 57<236 468 236 566> 317 60<236 366 236 366> 615 56<236 435 236 236>
VStem: 106 130<70 317 377 603 603 603>
LayerCount: 2
Fore
SplineSet
29 0 m 1
 29 49 l 1
 90 54 l 1
 106 70 l 1
 106 603 l 1
 90 617 l 1
 29 622 l 1
 29 671 l 1
 533 671 l 1
 533 514 l 1
 463 514 l 1
 448 602 l 1
 435 615 l 1
 236 615 l 1
 236 377 l 1
 366 377 l 1
 380 391 l 1
 390 463 l 1
 449 463 l 1
 449 231 l 1
 390 231 l 1
 380 303 l 1
 366 317 l 1
 236 317 l 1
 236 57 l 1
 468 57 l 1
 481 73 l 1
 498 179 l 1
 566 179 l 1
 566 0 l 1
 29 0 l 1
EndSplineSet
EndChar
StartChar: F
Encoding: 70 70 38
Width: 552
Flags: MW
HStem: 0 49<30 30 30 325> 303 61<238 372 238 372> 613 58<238 431 238 238>
VStem: 106 132<70 303 364 603 603 603>
LayerCount: 2
Fore
SplineSet
30 0 m 1
 30 49 l 1
 90 54 l 1
 106 70 l 1
 106 603 l 1
 90 617 l 1
 26 622 l 1
 26 671 l 1
 528 671 l 1
 528 503 l 1
 459 503 l 1
 444 600 l 1
 431 613 l 1
 238 613 l 1
 238 364 l 1
 372 364 l 1
 386 377 l 1
 396 450 l 1
 455 450 l 1
 455 217 l 1
 396 217 l 1
 386 290 l 1
 372 303 l 1
 238 303 l 1
 238 70 l 1
 255 54 l 1
 325 49 l 1
 325 0 l 1
 30 0 l 1
EndSplineSet
EndChar
StartChar: G
Encoding: 71 71 39
Width: 710
Flags: MW
HStem: -12 67<356 428.5> 281 49<398 690 398 690> 619 63<351.5 438 294 440.5>
VStem: 40 145<250 427.5 250 442.5> 488 128<58 262 29 262>
LayerCount: 2
Fore
SplineSet
398 330 m 1
 690 330 l 1
 690 281 l 1
 632 276 l 1
 616 262 l 1
 616 29 l 1
 539 2 465 -12 392 -12 c 0
 182 -12 40 132 40 340 c 0
 40 545 183 682 405 682 c 0
 471 682 542 671 616 649 c 1
 616 479 l 1
 543 479 l 1
 524 585 l 1
 509 603 l 1
 482 614 455 619 426 619 c 0
 277 619 185 515 185 340 c 0
 185 160 279 55 433 55 c 0
 443 55 462 56 488 58 c 1
 488 262 l 1
 472 276 l 1
 398 281 l 1
 398 330 l 1
EndSplineSet
EndChar
StartChar: H
Encoding: 72 72 40
Width: 760
Flags: MW
HStem: 0 49<30 313 30 30> 322 60<237 526 237 526> 622 49<30 313 30 313>
VStem: 104 133<70 322 382 601> 526 133<70 322 322 322 382 601 70 601>
LayerCount: 2
Fore
SplineSet
30 671 m 1
 313 671 l 1
 313 622 l 1
 253 617 l 1
 237 601 l 1
 237 382 l 1
 526 382 l 1
 526 601 l 1
 511 617 l 1
 451 622 l 1
 451 671 l 1
 733 671 l 1
 733 622 l 1
 675 617 l 1
 659 601 l 1
 659 70 l 1
 675 54 l 1
 733 49 l 1
 733 0 l 1
 451 0 l 1
 451 49 l 1
 511 54 l 1
 526 70 l 1
 526 322 l 1
 237 322 l 1
 237 70 l 1
 253 54 l 1
 313 49 l 1
 313 0 l 1
 30 0 l 1
 30 49 l 1
 88 54 l 1
 104 70 l 1
 104 601 l 1
 88 617 l 1
 30 622 l 1
 30 671 l 1
EndSplineSet
EndChar
StartChar: I
Encoding: 73 73 41
Width: 354
Flags: MW
HStem: 0 49<30 30 30 329> 622 49<30 329 30 329>
VStem: 112 134<70 603 70 603>
LayerCount: 2
Fore
SplineSet
30 0 m 1
 30 49 l 1
 96 54 l 1
 112 70 l 1
 112 603 l 1
 96 617 l 1
 30 622 l 1
 30 671 l 1
 329 671 l 1
 329 622 l 1
 262 617 l 1
 246 603 l 1
 246 70 l 1
 262 54 l 1
 329 49 l 1
 329 0 l 1
 30 0 l 1
EndSplineSet
EndChar
StartChar: J
Encoding: 74 74 42
Width: 465
Flags: MW
HStem: -12 58<135.5 183.5 135.5 236.5> 622 49<170 464 170 464>
VStem: 256 131<261 262 262 603>
LayerCount: 2
Fore
SplineSet
256 603 m 1
 240 617 l 1
 170 622 l 1
 170 671 l 1
 464 671 l 1
 464 622 l 1
 403 617 l 1
 387 603 l 1
 387 262 l 2
 387 75 318 -12 155 -12 c 0
 108 -12 61 -4 12 12 c 1
 12 192 l 1
 85 192 l 1
 108 60 l 1
 122 47 l 2
 127 47 133 46 138 46 c 0
 229 46 256 115 256 261 c 2
 256 603 l 1
EndSplineSet
EndChar
StartChar: K
Encoding: 75 75 43
Width: 650
Flags: MW
HStem: 0 49<30 30 30 314> 294 47<239 267 239 297 239 267> 622 49<30 314 30 314>
VStem: 106 133<70 294 341 603>
LayerCount: 2
Fore
SplineSet
30 0 m 1
 30 49 l 1
 91 54 l 1
 106 70 l 1
 106 603 l 1
 91 617 l 1
 30 622 l 1
 30 671 l 1
 314 671 l 1
 314 622 l 1
 255 617 l 1
 239 603 l 1
 239 341 l 1
 267 341 l 1
 484 604 l 1
 478 617 l 1
 422 622 l 1
 422 671 l 1
 647 671 l 1
 647 622 l 1
 577 615 l 1
 387 388 l 1
 600 55 l 1
 672 49 l 1
 672 0 l 1
 465 0 l 1
 465 35 l 1
 297 294 l 1
 239 294 l 1
 239 70 l 1
 255 54 l 1
 314 49 l 1
 314 0 l 1
 30 0 l 1
EndSplineSet
EndChar
StartChar: M
Encoding: 77 77 45
Width: 883
Flags: MW
HStem: 0 49<25 25 25 252> 623 48<25 287>
VStem: 103 72<74 602 74 604 74 604> 658 126<70 603 70 607 70 607>
LayerCount: 2
Fore
SplineSet
25 0 m 1
 25 49 l 1
 89 56 l 1
 103 74 l 1
 103 604 l 1
 91 617 l 1
 25 623 l 1
 25 671 l 1
 287 671 l 1
 287 643 l 1
 443 184 l 1
 598 642 l 1
 598 671 l 1
 863 671 l 1
 863 623 l 1
 795 617 l 1
 784 603 l 1
 784 70 l 1
 795 54 l 1
 863 49 l 1
 863 0 l 1
 586 0 l 1
 586 49 l 1
 648 54 l 1
 658 70 l 1
 658 607 l 1
 450 0 l 1
 378 0 l 1
 175 602 l 1
 175 74 l 1
 190 56 l 1
 252 49 l 1
 252 0 l 1
 25 0 l 1
EndSplineSet
EndChar
StartChar: N
Encoding: 78 78 46
Width: 727
Flags: MW
HStem: 0 48<26 26 26 254> 622 49<25 255>
VStem: 103 73<74 537 74 603 74 603> 561 73<169 597 0 597>
LayerCount: 2
Fore
SplineSet
26 0 m 1
 26 48 l 1
 85 56 l 1
 103 74 l 1
 103 603 l 1
 89 617 l 1
 25 622 l 1
 25 671 l 1
 255 671 l 1
 255 644 l 1
 561 169 l 1
 561 597 l 1
 543 616 l 1
 482 624 l 1
 482 671 l 1
 710 671 l 1
 710 624 l 1
 651 616 l 1
 634 597 l 1
 634 0 l 1
 522 0 l 1
 176 537 l 1
 176 74 l 1
 192 56 l 1
 254 48 l 1
 254 0 l 1
 26 0 l 1
EndSplineSet
EndChar
StartChar: O
Encoding: 79 79 47
Width: 752
Flags: MW
HStem: -16 61<324.5 427> 622 64<331.5 421 331.5 434.5>
VStem: 41 149<245 393.5> 567 150<280 389.5 280 422.5>
LayerCount: 2
Fore
SplineSet
41 339 m 0
 41 448 76 536 144 599 c 0
 207 657 285 686 378 686 c 0
 464 686 537 660 598 608 c 0
 675 542 717 446 717 333 c 0
 717 227 680 137 610 72 c 0
 549 15 469 -16 385 -16 c 0
 178 -16 41 126 41 339 c 0
380 622 m 0
 269 622 190 516 190 337 c 0
 190 153 271 45 378 45 c 0
 488 45 567 153 567 330 c 0
 567 515 489 622 380 622 c 0
EndSplineSet
EndChar
StartChar: P
Encoding: 80 80 48
Width: 587
Flags: MW
HStem: 0 49<29 29 29 324> 247 58<298.5 326 268.5 390> 613 58<238 290 238 238>
VStem: 106 132<70 250 307 603 603 603> 430 138<412 512.5>
LayerCount: 2
Fore
SplineSet
29 0 m 1
 29 49 l 1
 88 54 l 1
 106 70 l 1
 106 603 l 1
 91 617 l 1
 25 622 l 1
 25 671 l 1
 295 671 l 2
 480 671 568 613 568 469 c 0
 568 331 474 247 306 247 c 0
 291 247 268 248 238 250 c 1
 238 70 l 1
 253 54 l 1
 324 49 l 1
 324 0 l 1
 29 0 l 1
238 307 m 1
 251 306 263 305 274 305 c 0
 378 305 430 359 430 465 c 0
 430 560 381 613 290 613 c 2
 238 613 l 1
 238 307 l 1
EndSplineSet
EndChar
StartChar: Q
Encoding: 81 81 49
Width: 752
Flags: MW
HStem: -178 60<447 603> -2 52 622 65<322 419 315.5 431.5>
VStem: 39 151<248.5 375> 313 141 568 152<245.5 389 245 425>
LayerCount: 2
Fore
SplineSet
454 -2 m 1
 457 -82 500 -118 589 -118 c 0
 617 -118 648 -114 681 -106 c 1
 681 -157 l 1
 617 -171 563 -178 516 -178 c 0
 378 -178 313 -125 313 -9 c 0
 313 -8 313 -7 313 -6 c 0
 146 20 39 153 39 336 c 0
 39 414 59 483 97 543 c 0
 154 631 257 687 374 687 c 0
 464 687 538 662 598 610 c 0
 676 543 720 446 720 332 c 0
 720 158 615 26 454 -2 c 1
190 339 m 0
 190 158 273 50 383 50 c 0
 490 50 568 156 568 335 c 0
 568 515 487 622 376 622 c 0
 268 622 190 517 190 339 c 0
EndSplineSet
EndChar
StartChar: R
Encoding: 82 82 50
Width: 671
Flags: MW
HStem: 0 49<31 313 31 31> 295 57<236 325.5 236 325.5> 614 57<236 236 236 282>
VStem: 106 130<70 295 70 353 353 603 603 603> 430 140<454 527>
LayerCount: 2
Fore
SplineSet
31 671 m 1
 335 671 l 2
 490 671 570 611 570 500 c 0
 570 408 511 350 398 329 c 1
 446 318 480 299 503 267 c 0
 534 223 542 169 561 119 c 0
 582 64 612 49 679 49 c 0
 683 49 687 49 692 49 c 1
 692 1 l 1
 657 -4 623 -7 592 -7 c 0
 549 -7 512 5 488 24 c 0
 436 64 427 109 411 157 c 0
 380 252 354 295 253 295 c 0
 248 295 242 295 236 295 c 1
 236 70 l 1
 252 54 l 1
 313 49 l 1
 313 0 l 1
 31 0 l 1
 31 49 l 1
 90 54 l 1
 106 70 l 1
 106 603 l 1
 90 617 l 1
 31 622 l 1
 31 671 l 1
236 614 m 1
 236 353 l 1
 249 352 261 352 272 352 c 0
 379 352 430 394 430 486 c 0
 430 568 379 614 282 614 c 2
 236 614 l 1
EndSplineSet
EndChar
StartChar: S
Encoding: 83 83 51
Width: 568
Flags: MW
HStem: -11 65<236.5 292.5 236.5 334> 619 64<284.5 337>
VStem: 73 130<501 541.5> 381 136<134.5 176>
LayerCount: 2
Fore
SplineSet
59 22 m 1
 59 203 l 1
 135 203 l 1
 151 83 l 1
 164 68 l 1
 192 59 221 54 252 54 c 0
 333 54 381 94 381 149 c 0
 381 203 345 239 274 275 c 0
 234 295 187 312 143 349 c 0
 97 388 73 437 73 486 c 0
 73 597 166 683 309 683 c 0
 371 683 434 671 497 649 c 1
 497 487 l 1
 425 487 l 1
 408 591 l 1
 394 605 l 1
 376 614 353 619 321 619 c 0
 248 619 203 579 203 524 c 0
 203 478 231 448 284 416 c 0
 315 397 368 382 427 344 c 0
 485 307 517 253 517 194 c 0
 517 75 416 -11 252 -11 c 0
 188 -11 121 0 59 22 c 1
EndSplineSet
EndChar
StartChar: T
Encoding: 84 84 52
Width: 603
Flags: MW
HStem: 0 49<155 454 155 155> 614 57<117 237 117 117 372 492 372 372>
VStem: 237 135<70 614 70 614>
LayerCount: 2
Fore
SplineSet
16 671 m 1
 593 671 l 1
 593 494 l 1
 524 494 l 1
 507 601 l 1
 492 614 l 1
 372 614 l 1
 372 70 l 1
 389 54 l 1
 454 49 l 1
 454 0 l 1
 155 0 l 1
 155 49 l 1
 220 54 l 1
 237 70 l 1
 237 614 l 1
 117 614 l 1
 101 601 l 1
 85 494 l 1
 16 494 l 1
 16 671 l 1
EndSplineSet
EndChar
StartChar: U
Encoding: 85 85 53
Width: 705
Flags: MW
HStem: -12 79<334 449> 622 49<20 307 20 307>
VStem: 97 134<257 603> 546 73<262 599>
LayerCount: 2
Fore
SplineSet
20 671 m 1
 307 671 l 1
 307 622 l 1
 245 617 l 1
 231 603 l 1
 231 253 l 2
 231 124 274 67 394 67 c 0
 505 67 546 129 546 262 c 2
 546 599 l 1
 531 616 l 1
 467 622 l 1
 467 671 l 1
 694 671 l 1
 694 622 l 1
 633 616 l 1
 619 599 l 1
 619 252 l 2
 619 69 543 -12 355 -12 c 0
 256 -12 182 18 141 70 c 0
 102 121 97 180 97 257 c 2
 97 603 l 1
 83 617 l 1
 20 622 l 1
 20 671 l 1
EndSplineSet
EndChar
StartChar: V
Encoding: 86 86 54
Width: 635
Flags: MW
HStem: -2 20 622 49<-21 254 -21 254>
VStem: -21 681<622 671 622 671>
LayerCount: 2
Fore
SplineSet
-21 671 m 1
 254 671 l 1
 254 622 l 1
 196 617 l 1
 185 602 l 1
 351 146 l 1
 512 602 l 1
 501 617 l 1
 441 622 l 1
 441 671 l 1
 660 671 l 1
 660 622 l 1
 595 609 l 1
 373 -2 l 1
 272 -2 l 1
 45 610 l 1
 -21 622 l 1
 -21 671 l 1
EndSplineSet
EndChar
StartChar: W
Encoding: 87 87 55
Width: 946
Flags: MW
HStem: 0 20 622 49<2 264>
VStem: 2 942<622 671 622 671>
LayerCount: 2
Fore
SplineSet
227 0 m 1
 65 608 l 1
 2 622 l 1
 2 671 l 1
 264 671 l 1
 264 623 l 1
 202 616 l 1
 194 602 l 1
 306 187 l 1
 450 671 l 1
 551 671 l 1
 699 176 l 1
 804 596 l 1
 792 610 l 1
 726 622 l 1
 726 671 l 1
 944 671 l 1
 944 622 l 1
 881 608 l 1
 728 0 l 1
 631 0 l 1
 476 512 l 1
 324 0 l 1
 227 0 l 1
EndSplineSet
EndChar
StartChar: X
Encoding: 88 88 56
Width: 637
Flags: MW
HStem: 0 48<0 231 0 0> 623 48<14 297 14 297>
VStem: 0 644<0 48 0 48>
LayerCount: 2
Fore
SplineSet
14 671 m 1
 297 671 l 1
 297 623 l 1
 237 618 l 1
 229 605 l 1
 343 419 l 1
 473 602 l 1
 464 616 l 1
 409 623 l 1
 409 671 l 1
 633 671 l 1
 633 623 l 1
 571 615 l 1
 385 363 l 1
 577 61 l 1
 644 48 l 1
 644 0 l 1
 354 0 l 1
 354 48 l 1
 417 56 l 1
 424 69 l 1
 302 269 l 1
 160 71 l 1
 166 54 l 1
 231 48 l 1
 231 0 l 1
 0 0 l 1
 0 48 l 1
 64 58 l 1
 259 325 l 1
 77 613 l 1
 14 623 l 1
 14 671 l 1
EndSplineSet
EndChar
StartChar: Y
Encoding: 89 89 57
Width: 610
Flags: MW
HStem: 0 50<162 462 162 162> 622 49<-11 262 -11 262>
VStem: 245 133<69 264 264 264>
LayerCount: 2
Fore
SplineSet
-11 671 m 1
 262 671 l 1
 262 622 l 1
 206 617 l 1
 197 605 l 1
 334 351 l 1
 477 596 l 1
 469 612 l 1
 409 623 l 1
 409 671 l 1
 627 671 l 1
 627 622 l 1
 568 611 l 1
 378 288 l 1
 378 69 l 1
 394 55 l 1
 462 50 l 1
 462 0 l 1
 162 0 l 1
 162 50 l 1
 229 55 l 1
 245 69 l 1
 245 264 l 1
 53 612 l 1
 -11 622 l 1
 -11 671 l 1
EndSplineSet
EndChar
StartChar: Z
Encoding: 90 90 58
Width: 592
Flags: MW
HStem: 0 59<194 450 194 550> 613 58<168 394 168 168>
VStem: 44 506<0 55 55 55>
LayerCount: 2
Fore
SplineSet
62 671 m 1
 544 671 l 1
 544 616 l 1
 194 59 l 1
 450 59 l 1
 460 73 l 1
 478 194 l 1
 550 194 l 1
 550 0 l 1
 44 0 l 1
 44 55 l 1
 394 613 l 1
 168 613 l 1
 149 601 l 1
 133 494 l 1
 62 494 l 1
 62 671 l 1
EndSplineSet
EndChar
StartChar: bracketleft
Encoding: 91 91 59
Width: 443
Flags: MW
HStem: -132 55<251 405 251 405> 652 56<251 405 251 251>
VStem: 136 115<-77 652 -77 708 -77 708>
LayerCount: 2
Fore
SplineSet
136 708 m 1
 405 708 l 1
 405 652 l 1
 251 652 l 1
 251 -77 l 1
 405 -77 l 1
 405 -132 l 1
 136 -132 l 1
 136 708 l 1
EndSplineSet
EndChar
StartChar: backslash
Encoding: 92 92 60
Width: 491
Flags: MW
HStem: -93 764<-7 486 -7 411>
VStem: -7 493
LayerCount: 2
Fore
SplineSet
-7 671 m 1
 68 671 l 1
 486 -93 l 1
 411 -93 l 1
 -7 671 l 1
EndSplineSet
EndChar
StartChar: bracketright
Encoding: 93 93 61
Width: 443
Flags: MW
HStem: -132 55<42 196 42 312 42 196> 653 55<42 196 42 312>
VStem: 196 116<-77 653 653 653>
LayerCount: 2
Fore
SplineSet
42 708 m 1
 312 708 l 1
 312 -132 l 1
 42 -132 l 1
 42 -77 l 1
 196 -77 l 1
 196 653 l 1
 42 653 l 1
 42 708 l 1
EndSplineSet
EndChar
StartChar: grave
Encoding: 193 96 123
Width: 500
Flags: MW
HStem: 552 190<86 307 86 239>
VStem: 86 221<552 742>
LayerCount: 2
Fore
SplineSet
86 742 m 1
 210 742 l 1
 307 552 l 1
 239 552 l 1
 86 742 l 1
EndSplineSet
EndChar
StartChar: a
Encoding: 97 97 65
Width: 544
Flags: MW
HStem: -9 9 44 24 261 51<343 344> 446 53<241.5 282>
VStem: 40 132<120 176 120 178.5> 343 125<57 322 98 261 261 261>
LayerCount: 2
Fore
SplineSet
343 57 m 1
 279 14 225 -9 171 -9 c 0
 94 -9 40 45 40 121 c 0
 40 236 135 265 344 312 c 1
 344 342 l 2
 344 414 315 446 249 446 c 0
 234 446 219 444 201 440 c 1
 201 346 l 1
 109 346 l 2
 79 346 63 356 63 383 c 0
 63 440 149 499 281 499 c 0
 421 499 468 450 468 322 c 2
 468 63 l 1
 481 49 l 1
 534 44 l 1
 534 0 l 1
 356 0 l 1
 343 57 l 1
343 98 m 1
 343 261 l 1
 225 235 172 209 172 143 c 0
 172 97 200 68 246 68 c 0
 272 68 304 78 343 98 c 1
EndSplineSet
EndChar
StartChar: b
Encoding: 98 98 66
Width: 577
Flags: MW
HStem: -1 54<192 297.5 192 297.5> 420 78<259 407> 653 39<9 81 9 9> 719 20<157 205 205 205>
VStem: 81 124<54 54 54 412 453 653 653 653> 413 134<213 302>
LayerCount: 2
Fore
SplineSet
157 739 m 1
 205 739 l 1
 205 453 l 1
 259 483 306 498 350 498 c 0
 464 498 547 406 547 271 c 0
 547 155 492 69 389 23 c 0
 352 7 296 -1 219 -1 c 0
 210 -1 201 -1 192 -1 c 2
 81 1 l 1
 81 653 l 1
 9 653 l 1
 9 692 l 1
 157 739 l 1
205 54 m 1
 216 53 227 53 237 53 c 0
 358 53 413 114 413 245 c 0
 413 359 360 420 268 420 c 0
 250 420 229 417 205 412 c 1
 205 54 l 1
EndSplineSet
EndChar
StartChar: c
Encoding: 99 99 67
Width: 476
Flags: MW
HStem: -8 79<278.5 307> 448 49<267 305.5>
VStem: 35 136<202 314>
LayerCount: 2
Fore
SplineSet
464 45 m 1
 400 10 339 -8 275 -8 c 0
 130 -8 35 93 35 238 c 0
 35 390 143 497 293 497 c 0
 396 497 458 449 458 388 c 0
 458 349 429 320 386 320 c 0
 364 320 345 326 327 339 c 1
 327 445 l 1
 317 447 309 448 302 448 c 0
 232 448 171 376 171 262 c 0
 171 142 232 71 325 71 c 0
 368 71 415 86 464 116 c 1
 464 45 l 1
EndSplineSet
EndChar
StartChar: d
Encoding: 100 100 68
Width: 596
Flags: MW
HStem: -9 9 44 32 444 56<272.5 308.5 219 325.5> 652 40<316 389 316 316> 719 20<465 511 511 511>
VStem: 37 134<197 312.5 197 312.5> 389 122<0 739 56 739 95 429 429 429 490 652 652 652>
LayerCount: 2
Fore
SplineSet
389 652 m 1
 316 652 l 1
 316 692 l 1
 465 739 l 1
 511 739 l 1
 511 64 l 1
 525 48 l 1
 576 44 l 1
 576 0 l 1
 389 0 l 1
 389 56 l 1
 332 14 282 -9 231 -9 c 0
 119 -9 37 88 37 232 c 0
 37 393 143 500 295 500 c 0
 322 500 353 497 389 490 c 1
 389 652 l 1
389 95 m 1
 389 429 l 1
 360 439 336 444 315 444 c 0
 230 444 171 372 171 253 c 0
 171 141 222 76 305 76 c 0
 329 76 357 83 389 95 c 1
EndSplineSet
EndChar
StartChar: e
Encoding: 101 101 69
Width: 524
Flags: MW
HStem: -9 78<276.5 319> 255 53<170 361 170 492 165 361> 445 55<244 301.5>
VStem: 37 128<194.5 252.5 252.5 255 194.5 318.5> 361 131<255 319 255 360.5>
LayerCount: 2
Fore
SplineSet
491 124 m 1
 491 50 l 1
 424 11 354 -9 284 -9 c 0
 135 -9 37 91 37 242 c 0
 37 395 140 500 284 500 c 0
 415 500 492 418 492 274 c 0
 492 268 492 261 492 255 c 1
 165 255 l 1
 165 254 165 253 165 252 c 0
 165 137 227 69 326 69 c 0
 379 69 433 87 491 124 c 1
361 308 m 1
 361 312 361 315 361 319 c 0
 361 402 329 445 274 445 c 0
 214 445 173 395 170 308 c 1
 361 308 l 1
EndSplineSet
EndChar
StartChar: f
Encoding: 102 102 70
Width: 341
Flags: MW
HStem: 0 46<31 31 31 301> 414 60<218 352 218 352> 694 49<257 347>
VStem: 95 123<67 414 66 414 482 530>
LayerCount: 2
Fore
SplineSet
31 0 m 1
 31 46 l 1
 81 51 l 1
 95 67 l 1
 95 414 l 1
 30 414 l 1
 30 452 l 1
 95 482 l 1
 95 578 128 650 197 701 c 0
 234 729 277 743 318 743 c 0
 376 743 412 713 412 670 c 0
 412 643 392 621 354 608 c 1
 257 694 l 1
 231 667 218 616 218 542 c 0
 218 540 218 537 218 534 c 2
 218 474 l 1
 352 474 l 1
 352 414 l 1
 218 414 l 1
 218 66 l 1
 234 51 l 1
 301 46 l 1
 301 0 l 1
 31 0 l 1
EndSplineSet
EndChar
StartChar: g
Encoding: 103 103 71
Width: 551
Flags: W
HStem: -217 53<238.5 308 238.5 321.5> 19 86<198 223> 168 45<252.5 288.5 241 323> 411 57<447 555 447 447> 450 47<242 289>
VStem: 34 122<-91 -49> 55 128<296 370.5 296 376> 346 123<297 347 286 371> 391 119<-87 -45.5>
LayerCount: 2
Fore
SplineSet
407 468 m 1x11
 555 468 l 1
 555 411 l 1
 447 411 l 1
 462 385 469 360 469 334 c 0x11
 469 238 389 168 257 168 c 0
 248 168 238 168 228 169 c 1
 223 156 220 144 220 132 c 0
 220 124 221 115 223 105 c 1
 291 96 l 2
 436 75 510 45 510 -40 c 0
 510 -134 402 -217 241 -217 c 0
 109 -217 34 -162 34 -80 c 0xe480
 34 -18 73 24 137 30 c 1
 128 49 124 66 124 80 c 0
 124 113 142 142 179 175 c 1
 98 198 55 253 55 325 c 0
 55 427 136 497 269 497 c 0x2b
 312 497 358 488 407 468 c 1x11
267 450 m 0x2b
 217 450 183 407 183 334 c 0
 183 258 217 213 265 213 c 0
 312 213 346 259 346 335 c 0
 346 407 311 450 267 450 c 0x2b
198 19 m 1xe480
 170 -4 156 -32 156 -64 c 0
 156 -118 205 -164 272 -164 c 0
 344 -164 391 -121 391 -70 c 0
 391 -21 354 -7 283 5 c 2
 198 19 l 1xe480
EndSplineSet
EndChar
StartChar: h
Encoding: 104 104 72
Width: 597
Flags: MW
HStem: 0 45<24 271 24 24> 411 87<295 429> 653 39<16 89 16 16> 719 20<164 212 212 212>
VStem: 89 123<64 394 437 653 653 653> 398 122<64 303 303 332 64 340>
LayerCount: 2
Fore
SplineSet
164 739 m 1
 212 739 l 1
 212 437 l 1
 284 476 338 498 383 498 c 0
 475 498 520 443 520 332 c 2
 520 64 l 1
 533 49 l 1
 586 45 l 1
 586 0 l 1
 341 0 l 1
 341 45 l 1
 384 49 l 1
 398 64 l 1
 398 303 l 2
 398 377 370 411 308 411 c 0
 282 411 250 405 212 394 c 1
 212 64 l 1
 227 49 l 1
 271 45 l 1
 271 0 l 1
 24 0 l 1
 24 45 l 1
 75 49 l 1
 89 64 l 1
 89 653 l 1
 16 653 l 1
 16 692 l 1
 164 739 l 1
EndSplineSet
EndChar
StartChar: i
Encoding: 105 105 73
Width: 305
Flags: W
HStem: 0 45<30 292 30 30> 409 40<32 98 32 32> 476 20<173 221 221 221> 575 149<143 184>
VStem: 90 147<628.5 670.5> 98 123<64 409 409 409>
LayerCount: 2
Fore
SplineSet
162 724 m 0x18
 207 724 237 692 237 651 c 0
 237 606 205 575 163 575 c 0
 123 575 90 605 90 649 c 0
 90 692 121 724 162 724 c 0x18
173 496 m 1xe4
 221 496 l 1
 221 64 l 1
 236 49 l 1
 292 45 l 1
 292 0 l 1
 30 0 l 1
 30 45 l 1
 84 49 l 1
 98 64 l 1
 98 409 l 1
 32 409 l 1
 32 449 l 1
 173 496 l 1xe4
EndSplineSet
EndChar
StartChar: j
Encoding: 106 106 74
Width: 297
Flags: W
HStem: -214 45<-17 76> 409 39<38 109 38 38> 476 20<189 231 231 231> 575 149<147 187.5>
VStem: 94 148<627.5 670 627.5 671> 109 122<48 98 98 409 409 409>
LayerCount: 2
Fore
SplineSet
109 409 m 1xe4
 38 409 l 1
 38 448 l 1
 189 496 l 1
 231 496 l 1
 231 98 l 2
 231 -2 222 -76 177 -134 c 0
 138 -184 75 -214 11 -214 c 0
 -45 -214 -80 -184 -80 -144 c 0
 -80 -112 -58 -85 -22 -78 c 1
 76 -169 l 1
 101 -135 109 -69 109 29 c 2
 109 409 l 1xe4
94 649 m 0x18
 94 693 124 724 169 724 c 0
 210 724 242 692 242 648 c 0
 242 607 208 575 167 575 c 0
 127 575 94 605 94 649 c 0x18
EndSplineSet
EndChar
StartChar: k
Encoding: 107 107 75
Width: 553
Flags: MW
HStem: 0 44<25 25 25 277> 226 33<214 236 214 263 214 236> 442 44<328 532 328 532> 653 39<18 91 18 18> 719 20<172 214 214 214>
VStem: 91 123<64 226 259 653 653 653>
LayerCount: 2
Fore
SplineSet
25 0 m 1
 25 44 l 1
 77 49 l 1
 91 64 l 1
 91 653 l 1
 18 653 l 1
 18 692 l 1
 172 739 l 1
 214 739 l 1
 214 259 l 1
 236 259 l 1
 379 426 l 1
 372 437 l 1
 328 442 l 1
 328 486 l 1
 532 486 l 1
 532 442 l 1
 467 434 l 1
 353 307 l 1
 512 49 l 1
 571 44 l 1
 571 0 l 1
 379 0 l 1
 379 39 l 1
 263 226 l 1
 214 226 l 1
 214 62 l 1
 227 48 l 1
 277 44 l 1
 277 0 l 1
 25 0 l 1
EndSplineSet
EndChar
StartChar: l
Encoding: 108 108 76
Width: 304
Flags: MW
HStem: 0 44<23 23 23 291> 652 39<23 95 23 23> 719 20<174 218 218 218>
VStem: 95 123<66 652 652 652>
LayerCount: 2
Fore
SplineSet
23 0 m 1
 23 44 l 1
 81 50 l 1
 95 64 l 1
 95 652 l 1
 23 652 l 1
 23 691 l 1
 174 739 l 1
 218 739 l 1
 218 66 l 1
 233 50 l 1
 291 44 l 1
 291 0 l 1
 23 0 l 1
EndSplineSet
EndChar
StartChar: m
Encoding: 109 109 77
Width: 892
Flags: W
HStem: 0 45<31 276 31 31> 412 37 412 88<292 409>
VStem: 96 124<64 394 64 409 64 409> 394 122<66 309 309 344> 694 123<64 303 303 332 64 340.5>
LayerCount: 2
Fore
SplineSet
501 430 m 1x30
 581 476 641 498 678 498 c 0
 771 498 817 443 817 332 c 2
 817 64 l 1
 830 49 l 1
 883 45 l 1
 883 0 l 1
 637 0 l 1
 637 45 l 1
 680 49 l 1
 694 64 l 1
 694 303 l 2
 694 378 668 411 602 411 c 0
 577 411 549 404 516 392 c 1
 516 64 l 1
 530 49 l 1
 575 44 l 1
 575 0 l 1
 339 0 l 1
 339 45 l 1
 380 49 l 1
 394 66 l 1
 394 309 l 2
 394 379 368 412 304 412 c 0
 280 412 252 406 220 394 c 1
 220 64 l 1
 234 49 l 1
 276 45 l 1
 276 0 l 1
 31 0 l 1
 31 45 l 1
 82 49 l 1
 96 64 l 1
 96 409 l 1
 31 409 l 1
 31 449 l 1xdc
 172 496 l 1
 220 496 l 1
 220 437 l 1
 288 477 340 500 384 500 c 0
 434 500 474 476 501 430 c 1x30
EndSplineSet
EndChar
StartChar: n
Encoding: 110 110 78
Width: 605
Flags: W
HStem: 0 45<31 31 31 278> 411 38 411 87<302.5 437>
VStem: 96 124<64 394 64 409 64 409> 405 122<64 303 303 332 64 340>
LayerCount: 2
Fore
SplineSet
31 0 m 1xb8
 31 45 l 1
 82 49 l 1
 96 64 l 1
 96 409 l 1
 28 409 l 1
 28 449 l 1xd0
 172 496 l 1
 220 496 l 1
 220 437 l 1
 291 476 347 498 391 498 c 0
 483 498 527 443 527 332 c 2
 527 64 l 1
 540 49 l 1
 593 45 l 1
 593 0 l 1
 348 0 l 1
 348 45 l 1
 391 49 l 1
 405 64 l 1
 405 303 l 2
 405 377 378 411 315 411 c 0
 290 411 258 405 220 394 c 1
 220 64 l 1
 234 49 l 1
 278 45 l 1
 278 0 l 1
 31 0 l 1xb8
EndSplineSet
EndChar
StartChar: o
Encoding: 111 111 79
Width: 577
Flags: MW
HStem: -8 53<256 328 256 367> 446 53<256.5 327.5>
VStem: 37 139<181.5 311.5 181.5 320> 409 138<179 309.5>
LayerCount: 2
Fore
SplineSet
296 499 m 0
 449 499 547 400 547 241 c 0
 547 93 446 -8 288 -8 c 0
 138 -8 37 92 37 243 c 0
 37 397 139 499 296 499 c 0
292 446 m 0
 221 446 176 376 176 247 c 0
 176 116 221 45 291 45 c 0
 365 45 409 114 409 244 c 0
 409 375 363 446 292 446 c 0
EndSplineSet
EndChar
StartChar: p
Encoding: 112 112 80
Width: 591
Flags: W
HStem: -219 46<23 23 23 290> -1 54<284 321 267 376> 409 40<22 91 22 22> 413 86<280.5 424>
VStem: 91 122<-153 5 60 394> 424 136<186 299.5>
LayerCount: 2
Fore
SplineSet
23 -219 m 1xdc
 23 -173 l 1
 77 -168 l 1
 91 -153 l 1
 91 409 l 1
 22 409 l 1
 22 449 l 1xa8
 168 496 l 1
 213 496 l 1
 213 436 l 1
 272 477 322 499 371 499 c 0
 477 499 560 403 560 263 c 0
 560 103 457 -1 295 -1 c 0
 273 -1 246 1 213 5 c 1
 213 -155 l 1
 228 -169 l 1
 291 -173 l 1
 290 -219 l 1
 23 -219 l 1xdc
213 60 m 1xdc
 236 55 257 53 277 53 c 0
 365 53 424 126 424 246 c 0
 424 353 373 413 292 413 c 0
 269 413 243 406 213 394 c 1
 213 60 l 1xdc
EndSplineSet
EndChar
StartChar: q
Encoding: 113 113 81
Width: 575
Flags: MW
HStem: -218 46<304 571 304 304> -4 79<177.5 322.5> 444 55<281 341>
VStem: 37 135<193.5 312.5 193.5 313.5> 383 123<-154 43 43 43 82 428 -155 439 -155 439>
LayerCount: 2
Fore
SplineSet
509 486 m 1
 507 452 506 433 506 428 c 2
 506 -155 l 1
 521 -169 l 1
 571 -173 l 1
 571 -218 l 1
 304 -218 l 1
 304 -172 l 1
 368 -168 l 1
 383 -154 l 1
 383 43 l 1
 327 12 278 -4 234 -4 c 0
 121 -4 37 90 37 229 c 0
 37 398 150 499 353 499 c 0
 398 499 449 494 509 486 c 1
383 439 m 1
 365 442 349 444 333 444 c 0
 229 444 172 375 172 250 c 0
 172 137 226 75 313 75 c 0
 332 75 356 77 383 82 c 1
 383 439 l 1
EndSplineSet
EndChar
StartChar: r
Encoding: 114 114 82
Width: 421
Flags: W
HStem: 0 45<29 29 29 305> 379 119<282 365> 409 40<24 96 24 24>
VStem: 96 123<64 351 64 409 64 409>
LayerCount: 2
Fore
SplineSet
29 0 m 1xd0
 29 45 l 1
 82 49 l 1
 96 64 l 1
 96 409 l 1
 24 409 l 1
 24 449 l 1xb0
 171 496 l 1
 219 496 l 1
 215 394 l 1
 251 433 291 467 332 496 c 0
 339 497 347 498 354 498 c 0
 376 498 398 492 420 481 c 1
 407 343 l 1
 355 343 l 1
 340 368 319 379 290 379 c 0
 274 379 250 370 219 351 c 1
 219 64 l 1
 234 49 l 1
 305 45 l 1
 305 0 l 1
 29 0 l 1xd0
EndSplineSet
EndChar
StartChar: s
Encoding: 115 115 83
Width: 447
Flags: MW
HStem: -11 55<192 234 192 270.5> 444 56<222.5 258.5>
VStem: 48 123<363 394> 292 118<103.5 143>
LayerCount: 2
Fore
SplineSet
395 475 m 1
 395 342 l 1
 335 342 l 1
 325 417 l 1
 313 428 l 1
 292 438 270 444 247 444 c 0
 198 444 171 421 171 384 c 0
 171 342 205 325 264 296 c 0
 353 253 410 226 410 154 c 0
 410 53 335 -11 206 -11 c 0
 158 -11 103 -3 41 14 c 1
 41 162 l 1
 102 162 l 1
 113 76 l 1
 123 65 l 1
 149 51 177 44 207 44 c 0
 261 44 292 72 292 116 c 0
 292 170 238 180 160 219 c 0
 86 256 48 291 48 351 c 0
 48 437 121 500 244 500 c 0
 294 500 344 492 395 475 c 1
EndSplineSet
EndChar
StartChar: t
Encoding: 116 116 84
Width: 358
Flags: MW
HStem: -5 73<186.5 303> 414 60<208 356 208 356> 578 20<145 208 208 208>
VStem: 84 124<129.5 165 165 414>
LayerCount: 2
Fore
SplineSet
84 414 m 1
 19 414 l 1
 19 452 l 1
 93 494 l 1
 145 598 l 1
 208 598 l 1
 208 474 l 1
 356 474 l 1
 356 414 l 1
 208 414 l 1
 208 165 l 2
 208 94 225 68 291 68 c 0
 315 68 336 70 356 75 c 1
 356 27 l 1
 296 5 244 -5 203 -5 c 0
 170 -5 143 1 120 17 c 0
 85 40 84 72 84 123 c 2
 84 414 l 1
EndSplineSet
EndChar
StartChar: u
Encoding: 117 117 85
Width: 600
Flags: W
HStem: -9 86<178.5 319.5> 0 45<393 582> 412 39<23 88 23 23> 479 20<164 212 212 212 470 516 516 516>
VStem: 88 124<162 189 189 412 412 412> 393 123<0 499 55 499 93 412 412 412>
LayerCount: 2
Fore
SplineSet
164 499 m 1xbc
 212 499 l 1
 212 189 l 2
 212 111 238 77 307 77 c 0xbc
 332 77 360 83 393 93 c 1
 393 412 l 1
 328 412 l 1
 328 451 l 1
 470 499 l 1
 516 499 l 1
 516 64 l 1
 530 49 l 1
 582 45 l 1
 582 0 l 1
 393 0 l 1x74
 393 55 l 1
 330 14 278 -9 225 -9 c 0
 132 -9 88 47 88 162 c 2
 88 412 l 1
 23 412 l 1
 23 451 l 1
 164 499 l 1xbc
EndSplineSet
EndChar
StartChar: v
Encoding: 118 118 86
Width: 513
Flags: MW
HStem: 0 20 441 46<-6 248 -6 248>
VStem: -6 540<441 487 441 487>
LayerCount: 2
Fore
SplineSet
-6 487 m 1
 248 487 l 1
 248 441 l 1
 196 436 l 1
 185 423 l 1
 289 131 l 1
 403 422 l 1
 395 436 l 1
 344 441 l 1
 344 487 l 1
 534 487 l 1
 534 441 l 1
 476 434 l 1
 304 0 l 1
 214 0 l 1
 54 435 l 1
 -6 441 l 1
 -6 487 l 1
EndSplineSet
EndChar
StartChar: w
Encoding: 119 119 87
Width: 799
Flags: MW
HStem: 0 20 441 46<-1 247 -1 247>
VStem: -1 812<441 487 441 487>
LayerCount: 2
Fore
SplineSet
-1 487 m 1
 247 487 l 1
 247 441 l 1
 198 434 l 1
 187 420 l 1
 268 132 l 1
 385 487 l 1
 485 487 l 1
 594 132 l 1
 682 421 l 1
 675 435 l 1
 622 441 l 1
 622 487 l 1
 811 487 l 1
 811 441 l 1
 755 434 l 1
 619 0 l 1
 518 0 l 1
 407 359 l 1
 288 0 l 1
 188 0 l 1
 59 435 l 1
 -1 441 l 1
 -1 487 l 1
EndSplineSet
EndChar
StartChar: x
Encoding: 120 120 88
Width: 531
Flags: MW
HStem: 0 44<11 205 11 11> 441 46<14 255>
VStem: 11 520<0 44 0 44>
LayerCount: 2
Fore
SplineSet
14 487 m 1
 255 487 l 1
 255 445 l 1
 217 439 l 1
 212 428 l 1
 292 309 l 1
 379 434 l 1
 328 443 l 1
 328 487 l 1
 512 487 l 1
 512 441 l 1
 457 434 l 1
 329 268 l 1
 478 53 l 1
 531 44 l 1
 531 0 l 1
 297 0 l 1
 297 39 l 1
 332 48 l 1
 336 58 l 1
 248 192 l 1
 154 54 l 1
 205 44 l 1
 205 0 l 1
 11 0 l 1
 11 44 l 1
 70 55 l 1
 210 234 l 1
 71 433 l 1
 14 441 l 1
 14 487 l 1
EndSplineSet
EndChar
StartChar: y
Encoding: 121 121 89
Width: 515
Flags: MW
HStem: -219 85<78.5 156> 443 43<-4 250 -4 250>
VStem: 17 519
LayerCount: 2
Fore
SplineSet
-4 486 m 1
 250 486 l 1
 250 443 l 1
 199 437 l 1
 189 423 l 1
 297 140 l 1
 406 422 l 1
 397 437 l 1
 344 443 l 1
 344 486 l 1
 536 486 l 1
 536 443 l 1
 482 434 l 1
 289 -35 l 2
 240 -153 169 -219 103 -219 c 0
 54 -219 17 -183 17 -145 c 0
 17 -116 36 -91 69 -74 c 1
 156 -134 l 1
 182 -113 209 -72 234 -12 c 1
 56 434 l 1
 -4 443 l 1
 -4 486 l 1
EndSplineSet
EndChar
StartChar: z
Encoding: 122 122 90
Width: 495
Flags: MW
HStem: 0 56<185 370 185 465> 432 54<142 304 142 142>
VStem: 46 419<0 62 62 62>
LayerCount: 2
Fore
SplineSet
46 0 m 1
 46 62 l 1
 304 432 l 1
 142 432 l 1
 129 418 l 1
 119 335 l 1
 54 335 l 1
 54 486 l 1
 450 486 l 1
 450 434 l 1
 185 56 l 1
 370 56 l 1
 385 72 l 1
 397 164 l 1
 465 164 l 1
 465 0 l 1
 46 0 l 1
EndSplineSet
EndChar
StartChar: braceleft
Encoding: 123 123 91
Width: 493
Flags: MW
HStem: -134 53<416 421> 263 57<46 66 46 49.5> 654 51<400 421>
VStem: 183 115<448 466 466 529 413.5 532 413.5 596>
LayerCount: 2
Fore
SplineSet
421 705 m 1
 421 654 l 1
 322 651 298 619 298 529 c 2
 298 466 l 2
 298 361 255 308 153 291 c 1
 253 275 299 221 299 119 c 2
 299 46 l 2
 299 -49 320 -80 421 -81 c 1
 421 -134 l 1
 411 -134 401 -135 391 -135 c 0
 238 -135 183 -88 183 51 c 2
 183 132 l 2
 183 229 154 263 66 263 c 0
 59 263 53 263 46 263 c 1
 46 320 l 1
 53 320 60 320 66 320 c 0
 156 320 183 354 183 448 c 2
 183 532 l 2
 183 660 245 705 400 705 c 0
 407 705 414 705 421 705 c 1
EndSplineSet
EndChar
StartChar: braceright
Encoding: 125 125 93
Width: 493
Flags: MW
HStem: -135 54<62 168.5> 263 56<373 418.5 371.5 420.5 417 418.5 371.5 437> 654 51<62 83>
VStem: 186 115<466 529 529 532 401.5 574.5>
LayerCount: 2
Fore
SplineSet
62 705 m 1
 69 705 76 705 83 705 c 0
 240 705 301 661 301 532 c 2
 301 448 l 2
 301 355 328 319 415 319 c 0
 422 319 429 320 437 320 c 1
 437 263 l 1
 430 263 424 263 417 263 c 0
 329 263 300 229 300 132 c 2
 300 51 l 2
 300 -88 245 -135 92 -135 c 0
 82 -135 72 -134 62 -134 c 1
 62 -81 l 1
 164 -80 185 -48 185 46 c 2
 185 119 l 2
 185 221 230 275 330 291 c 1
 227 309 186 361 186 466 c 2
 186 529 l 2
 186 620 160 651 62 654 c 1
 62 705 l 1
EndSplineSet
EndChar
StartChar: asciitilde
Encoding: 126 126 94
Width: 833
Flags: W
HStem: 224 84<546.5 591> 290 83<247 304.5 247 307>
VStem: 87 660<293 293 293 303 303 303>
LayerCount: 2
Fore
SplineSet
747 293 m 1xa0
 682 248 621 224 561 224 c 0xa0
 532 224 500 230 468 241 c 0
 399 264 339 290 275 290 c 0
 217 290 158 262 87 212 c 1
 87 303 l 1
 156 350 218 373 276 373 c 0x60
 333 373 378 358 419 344 c 0
 468 327 513 308 562 308 c 0
 620 308 679 334 747 383 c 1
 747 293 l 1xa0
EndSplineSet
EndChar
StartChar: exclamdown
Encoding: 161 161 95
Width: 340
Flags: MW
HStem: -8 487<145.5 192> 532 152<149.5 190 149.5 190.5>
VStem: 95 150<587.5 630>
LayerCount: 2
Fore
SplineSet
170 532 m 0
 129 532 95 566 95 609 c 0
 95 651 129 684 170 684 c 0
 210 684 245 651 245 609 c 0
 245 566 211 532 170 532 c 0
97 122 m 2
 143 479 l 1
 195 479 l 1
 241 124 l 2
 244 102 246 84 246 69 c 0
 246 22 215 -8 169 -8 c 0
 122 -8 94 23 94 75 c 0
 94 85 94 101 97 122 c 2
EndSplineSet
EndChar
StartChar: cent
Encoding: 162 162 96
Width: 581
Flags: MW
HStem: -102 20 1 56<360 372> 455 57<360 371.5> 592 20<305 360 360 360>
VStem: 59 127<202 306 202 324> 305 55<-102 1 -102 2 -102 2 59 453 453 453 512 612>
LayerCount: 2
Fore
SplineSet
305 612 m 1
 360 612 l 1
 360 512 l 1
 408 511 455 502 503 483 c 1
 503 339 l 1
 444 339 l 1
 429 437 l 1
 406 450 383 455 360 455 c 1
 360 57 l 1
 384 57 407 62 429 72 c 1
 444 176 l 1
 504 176 l 1
 504 25 l 1
 464 10 416 3 360 1 c 1
 360 -102 l 1
 305 -102 l 1
 305 2 l 1
 156 13 59 115 59 253 c 0
 59 395 152 495 305 510 c 1
 305 612 l 1
305 453 m 1
 231 432 186 360 186 252 c 0
 186 152 233 79 305 59 c 1
 305 453 l 1
EndSplineSet
EndChar
StartChar: sterling
Encoding: 163 163 97
Width: 581
Flags: MW
HStem: 0 100<241 540 241 540> 299 60<76 145 76 146 76 145 269 449 269 269> 625 54<341 390>
VStem: 142 124<409 488.5 409 501.5>
LayerCount: 2
Fore
SplineSet
421 504 m 1
 421 620 l 1
 408 624 396 625 384 625 c 0
 298 625 266 559 266 418 c 0
 266 400 267 380 268 359 c 1
 449 359 l 1
 449 299 l 1
 269 299 l 1
 269 204 237 140 168 101 c 1
 170 93 l 1
 203 98 227 100 241 100 c 2
 540 100 l 1
 540 0 l 1
 43 0 l 1
 43 72 l 1
 122 92 147 149 147 263 c 0
 147 275 146 287 146 299 c 1
 76 299 l 1
 76 359 l 1
 145 359 l 1
 143 379 142 399 142 417 c 0
 142 586 227 679 368 679 c 0
 470 679 538 626 538 564 c 0
 538 525 508 496 461 496 c 0
 452 496 438 499 421 504 c 1
EndSplineSet
EndChar
StartChar: yen
Encoding: 165 165 99
Width: 595
Flags: MW
HStem: 0 50<152 451 152 152> 235 49<22 227 22 237 22 227 365 578 365 365> 380 50<22 148 22 178 22 148 446 578> 622 49<-7 256 -7 256>
VStem: -7 244 365 238
LayerCount: 2
Fore
SplineSet
-7 671 m 1
 256 671 l 1
 256 622 l 1
 202 617 l 1
 193 605 l 1
 324 351 l 1
 459 596 l 1
 451 612 l 1
 395 623 l 1
 395 671 l 1
 603 671 l 1
 603 622 l 1
 547 611 l 1
 446 430 l 1
 578 430 l 1
 578 380 l 1
 416 380 l 1
 363 284 l 1
 578 284 l 1
 578 235 l 1
 365 235 l 1
 365 69 l 1
 381 55 l 1
 451 50 l 1
 451 0 l 1
 152 0 l 1
 152 50 l 1
 220 55 l 1
 237 69 l 1
 237 235 l 1
 22 235 l 1
 22 284 l 1
 227 284 l 1
 178 380 l 1
 22 380 l 1
 22 430 l 1
 148 430 l 1
 54 612 l 1
 -7 622 l 1
 -7 671 l 1
EndSplineSet
EndChar
StartChar: brokenbar
Encoding: 320 166 213
Width: 500
Flags: MW
HStem: -171 20 199 130<207 294 207 294> 679 20<207 294 294 294>
VStem: 207 87<-171 199 -171 199 329 699>
LayerCount: 2
Fore
SplineSet
294 699 m 1
 294 329 l 1
 207 329 l 1
 207 699 l 1
 294 699 l 1
294 199 m 1
 294 -171 l 1
 207 -171 l 1
 207 199 l 1
 294 199 l 1
EndSplineSet
EndChar
StartChar: section
Encoding: 167 167 101
Width: 500
Flags: MW
HStem: -142 53<218.5 262.5 218.5 295> 668 51<240.5 283>
VStem: 46 86<284 322> 365 89<272 304>
LayerCount: 2
Fore
SplineSet
423 695 m 1
 423 559 l 1
 370 559 l 1
 360 641 l 1
 327 659 297 668 269 668 c 0
 212 668 173 634 173 589 c 0
 173 533 229 518 315 475 c 0
 409 428 454 377 454 306 c 0
 454 238 410 174 333 143 c 1
 402 107 434 68 434 11 c 0
 434 -78 359 -142 231 -142 c 0
 178 -142 125 -131 71 -110 c 1
 70 27 l 1
 128 27 l 1
 141 -64 l 1
 173 -81 204 -89 233 -89 c 0
 292 -89 330 -54 330 -10 c 0
 330 53 265 73 165 122 c 0
 86 160 46 216 46 286 c 0
 46 358 85 409 164 443 c 1
 97 478 66 517 66 574 c 0
 66 662 140 719 271 719 c 0
 320 719 370 711 423 695 c 1
216 415 m 1
 161 394 132 358 132 314 c 0
 132 254 183 217 284 171 c 1
 338 203 365 236 365 277 c 0
 365 331 315 373 216 415 c 1
EndSplineSet
EndChar
StartChar: dieresis
Encoding: 200 168 130
Width: 500
Flags: MW
HStem: 579 131<129.5 164 129.5 164.5 335.5 370>
VStem: 83 127<626 662.5> 290 126<626 662.5>
LayerCount: 2
Fore
SplineSet
147 710 m 0
 181 710 210 681 210 644 c 0
 210 608 182 579 147 579 c 0
 112 579 83 608 83 644 c 0
 83 681 112 710 147 710 c 0
353 710 m 0
 387 710 416 681 416 644 c 0
 416 608 387 579 353 579 c 0
 317 579 290 608 290 644 c 0
 290 681 318 710 353 710 c 0
EndSplineSet
EndChar
StartChar: copyright
Encoding: 313 169 206
Width: 876
Flags: MW
HStem: -50 46<398 487.5 398 490.5> 103 49<426.5 478.5> 525 48<427.5 482> 684 45<399.5 486.5>
VStem: 62 48<293 386 293 390.5> 212 109<282 394.5 282 406.5> 776 48<295 386>
LayerCount: 2
Fore
SplineSet
444 729 m 0
 543 729 643 687 715 613 c 0
 784 542 824 441 824 336 c 0
 824 236 782 137 707 61 c 0
 635 -11 543 -50 438 -50 c 0
 342 -50 247 -9 174 65 c 0
 101 139 62 234 62 339 c 0
 62 442 101 539 173 614 c 0
 245 688 342 729 444 729 c 0
444 684 m 0
 355 684 270 647 207 582 c 0
 143 516 110 432 110 340 c 0
 110 246 144 162 208 97 c 0
 273 31 353 -4 443 -4 c 0
 532 -4 614 31 677 97 c 0
 741 164 776 250 776 340 c 0
 776 432 740 521 678 584 c 0
 615 648 529 684 444 684 c 0
600 548 m 1
 600 427 l 1
 547 427 l 1
 532 507 l 1
 513 519 493 525 471 525 c 0
 384 525 321 450 321 339 c 0
 321 225 384 152 469 152 c 0
 490 152 511 157 533 167 c 1
 548 253 l 1
 600 253 l 1
 600 128 l 1
 555 111 505 103 452 103 c 0
 311 103 212 200 212 338 c 0
 212 475 310 573 459 573 c 0
 508 573 555 565 600 548 c 1
EndSplineSet
EndChar
StartChar: ordfeminine
Encoding: 227 170 138
Width: 408
Flags: MW
HStem: 324 6 361 17 513 35<257 258> 642 37<181.5 211.5>
VStem: 30 99<414 453 414 455> 257 94<370 555 399 513 513 513>
LayerCount: 2
Fore
SplineSet
257 370 m 1
 209 340 169 324 128 324 c 0
 71 324 30 361 30 415 c 0
 30 495 101 515 258 548 c 1
 258 569 l 2
 258 620 236 642 187 642 c 0
 176 642 164 641 151 638 c 1
 151 572 l 1
 82 572 l 2
 59 572 47 579 47 598 c 0
 47 638 112 679 211 679 c 0
 316 679 351 645 351 555 c 2
 351 374 l 1
 361 364 l 1
 401 361 l 1
 401 330 l 1
 267 330 l 1
 257 370 l 1
257 399 m 1
 257 513 l 1
 169 494 129 476 129 430 c 0
 129 398 150 378 185 378 c 0
 204 378 228 385 257 399 c 1
EndSplineSet
EndChar
StartChar: guillemotleft
Encoding: 171 171 105
Width: 449
Flags: MW
HStem: 54 372<208 208 208 404>
VStem: 35 173<54 282 54 282> 231 173<54 282 54 282>
LayerCount: 2
Fore
SplineSet
208 426 m 1
 208 342 l 1
 100 240 l 1
 208 138 l 1
 208 54 l 1
 35 198 l 1
 35 282 l 1
 208 426 l 1
404 426 m 1
 404 342 l 1
 296 240 l 1
 404 138 l 1
 404 54 l 1
 231 198 l 1
 231 282 l 1
 404 426 l 1
EndSplineSet
EndChar
StartChar: registered
Encoding: 315 174 208
Width: 876
Flags: MW
HStem: -50 46<397.5 487.5 397.5 490.5> 122 37<690 695> 313 41<391 446 391 446> 519 40<408 445.5> 684 45<400 487.5>
VStem: 62 48<293 385.5 293 390.5> 297 94<169 313 169 355 355 512 512 512> 516 103<421.5 463> 776 48<294.5 385.5>
LayerCount: 2
Fore
SplineSet
444 729 m 0
 543 729 643 687 715 613 c 0
 784 542 824 441 824 336 c 0
 824 236 782 137 707 61 c 0
 635 -11 543 -50 438 -50 c 0
 342 -50 247 -9 174 65 c 0
 101 139 62 234 62 339 c 0
 62 442 101 539 173 614 c 0
 245 688 342 729 444 729 c 0
444 684 m 0
 356 684 271 648 207 582 c 0
 144 516 110 432 110 339 c 0
 110 247 143 164 205 100 c 0
 272 31 352 -4 443 -4 c 0
 532 -4 614 31 677 97 c 0
 741 163 776 249 776 340 c 0
 776 431 741 519 681 581 c 0
 618 647 531 684 444 684 c 0
244 559 m 1
 464 559 l 2
 567 559 619 522 619 451 c 0
 619 392 578 353 500 338 c 1
 576 322 587 276 608 219 c 0
 624 175 641 159 690 159 c 0
 692 159 693 159 695 159 c 1
 695 122 l 1
 667 118 647 116 634 116 c 0
 603 116 577 122 556 136 c 0
 516 162 513 201 498 242 c 0
 480 293 455 313 402 313 c 0
 399 313 395 313 391 313 c 1
 391 169 l 1
 448 158 l 1
 448 121 l 1
 247 121 l 1
 247 157 l 1
 297 168 l 1
 297 512 l 1
 244 524 l 1
 244 559 l 1
391 518 m 1
 391 355 l 1
 398 354 405 354 411 354 c 0
 481 354 516 384 516 437 c 0
 516 489 480 519 411 519 c 0
 405 519 398 519 391 518 c 1
EndSplineSet
EndChar
StartChar: macron
Encoding: 197 175 127
Width: 500
Flags: MW
HStem: 604 71<86 417 86 417>
VStem: 86 331<604 675 604 675>
LayerCount: 2
Fore
SplineSet
86 675 m 1
 417 675 l 1
 417 604 l 1
 86 604 l 1
 86 675 l 1
EndSplineSet
EndChar
StartChar: degree
Encoding: 321 176 214
Width: 329
Flags: MW
HStem: 424 54<140 190.5 140 204.5> 659 54<140 190>
VStem: 21 53<544 594 544 608.5> 255 54<544.5 594>
LayerCount: 2
Fore
SplineSet
165 713 m 0
 245 713 309 648 309 568 c 0
 309 490 245 424 164 424 c 0
 84 424 21 487 21 568 c 0
 21 649 85 713 165 713 c 0
255 569 m 0
 255 619 215 659 165 659 c 0
 115 659 74 619 74 569 c 0
 74 519 115 478 165 478 c 0
 216 478 255 520 255 569 c 0
EndSplineSet
EndChar
StartChar: twosuperior
Encoding: 333 178 226
Width: 383
Flags: MW
HStem: 268 61<114 299 114 351> 639 39<159 190>
VStem: 246 91<522.5 582>
LayerCount: 2
Fore
SplineSet
114 329 m 1
 299 329 l 1
 311 382 l 1
 351 382 l 1
 351 268 l 1
 32 268 l 1
 32 315 l 1
 171 414 246 480 246 555 c 0
 246 609 215 639 165 639 c 0
 153 639 140 637 127 632 c 1
 127 555 l 1
 112 548 98 544 85 544 c 0
 56 544 38 561 38 586 c 0
 38 636 98 678 193 678 c 0
 281 678 337 630 337 561 c 0
 337 484 261 420 114 329 c 1
EndSplineSet
EndChar
StartChar: threesuperior
Encoding: 332 179 225
Width: 383
Flags: W
HStem: 261 36<160.5 192 160.5 218> 454 40<159.5 174 123 192> 639 38<152.5 182>
VStem: 240 89<552 588> 255 90<356.5 402>
LayerCount: 2
Fore
SplineSet
220 480 m 1x70
 301 474 345 438 345 384 c 0
 345 316 275 261 161 261 c 0
 80 261 28 297 28 336 c 0
 28 360 46 375 75 375 c 0
 83 375 90 374 100 371 c 1
 121 306 l 1
 139 300 154 297 167 297 c 0
 217 297 255 333 255 380 c 0x88
 255 424 220 454 164 454 c 0
 155 454 141 453 123 451 c 1
 123 494 l 1
 130 494 137 494 143 494 c 0
 205 494 240 521 240 567 c 0
 240 609 206 639 158 639 c 0
 147 639 134 636 121 632 c 1
 121 561 l 1
 110 555 100 553 86 553 c 0
 57 553 38 570 38 594 c 0
 38 638 96 677 185 677 c 0
 273 677 329 634 329 576 c 0
 329 528 292 495 220 480 c 1x70
EndSplineSet
EndChar
StartChar: acute
Encoding: 194 180 124
Width: 500
Flags: MW
HStem: 552 190<206 427 206 427>
VStem: 206 221<552 742>
LayerCount: 2
Fore
SplineSet
303 742 m 1
 427 742 l 1
 273 552 l 1
 206 552 l 1
 303 742 l 1
EndSplineSet
EndChar
StartChar: paragraph
Encoding: 182 182 114
Width: 491
Flags: MW
HStem: -79 20 628 43<261 457>
VStem: 19 250<396 537.5> 339 57<-79 618 -79 623 -79 623>
LayerCount: 2
Fore
SplineSet
261 671 m 2
 457 671 l 1
 457 628 l 1
 396 618 l 1
 396 -79 l 1
 339 -79 l 1
 339 623 l 1
 269 623 l 1
 269 262 l 1
 263 262 257 262 252 262 c 0
 95 262 19 328 19 464 c 0
 19 611 95 671 261 671 c 2
EndSplineSet
EndChar
StartChar: periodcentered
Encoding: 180 183 113
Width: 289
Flags: MW
HStem: 256 159<122.5 166>
VStem: 66 158<313.5 357 313.5 357>
LayerCount: 2
Fore
SplineSet
144 415 m 0
 188 415 224 379 224 335 c 0
 224 292 188 256 144 256 c 0
 101 256 66 291 66 335 c 0
 66 379 101 415 144 415 c 0
EndSplineSet
EndChar
StartChar: cedilla
Encoding: 203 184 132
Width: 500
Flags: MW
HStem: -230 50<239.5 253.5 225.5 290> -110 54<246.5 318>
VStem: 295 78<-155 -133>
LayerCount: 2
Fore
SplineSet
228 0 m 1
 276 0 l 1
 276 -57 l 1
 281 -56 287 -56 292 -56 c 0
 344 -56 373 -85 373 -132 c 0
 373 -190 327 -230 253 -230 c 0
 226 -230 200 -226 172 -219 c 1
 172 -172 l 1
 198 -177 218 -180 233 -180 c 0
 274 -180 295 -167 295 -143 c 0
 295 -123 279 -110 250 -110 c 0
 243 -110 236 -111 228 -112 c 1
 228 0 l 1
EndSplineSet
EndChar
StartChar: onesuperior
Encoding: 328 185 221
Width: 383
Flags: MW
HStem: 268 30<98 327 98 98> 602 31<72 72> 665 12
VStem: 172 86<312 608 608 608>
LayerCount: 2
Fore
SplineSet
215 677 m 1
 258 677 l 1
 258 310 l 1
 265 300 l 1
 327 298 l 1
 327 268 l 1
 98 268 l 1
 98 298 l 1
 164 302 l 1
 172 312 l 1
 172 608 l 1
 166 615 l 1
 72 602 l 1
 72 633 l 1
 215 677 l 1
EndSplineSet
EndChar
StartChar: ordmasculine
Encoding: 235 186 142
Width: 433
Flags: MW
HStem: 324 37<192 246 192 275.5> 642 37<192.5 245.5>
VStem: 28 104<457 548 457 554> 307 103<455.5 546.5>
LayerCount: 2
Fore
SplineSet
222 679 m 0
 337 679 410 610 410 499 c 0
 410 395 335 324 216 324 c 0
 104 324 28 394 28 500 c 0
 28 608 104 679 222 679 c 0
219 642 m 0
 166 642 132 593 132 503 c 0
 132 411 166 361 218 361 c 0
 274 361 307 410 307 501 c 0
 307 592 272 642 219 642 c 0
EndSplineSet
EndChar
StartChar: guillemotright
Encoding: 187 187 119
Width: 449
Flags: MW
HStem: 54 372<43 43 43 239>
VStem: 43 172<54 282 138 282 198 426 198 426> 239 173<54 282 138 282 198 426 198 426>
LayerCount: 2
Fore
SplineSet
239 426 m 1
 412 282 l 1
 412 198 l 1
 239 54 l 1
 239 138 l 1
 347 240 l 1
 239 342 l 1
 239 426 l 1
43 426 m 1
 215 282 l 1
 215 198 l 1
 43 54 l 1
 43 138 l 1
 151 240 l 1
 43 342 l 1
 43 426 l 1
EndSplineSet
EndChar
StartChar: onequarter
Encoding: 327 188 220
Width: 899
Flags: W
HStem: -17 11 0 671<200 698 200 698> 101 45<606 745 606 745 818 890> 295 28<93 312 93 93> 368 11 607 28<69 69> 665 11
VStem: 164 82<336 612 612 612> 200 498 745 73<-17 101 -17 101 146 302 302 302>
LayerCount: 2
Fore
SplineSet
205 676 m 1xbf40
 246 676 l 1
 246 334 l 1
 253 325 l 1
 312 323 l 1
 312 295 l 1
 93 295 l 1
 93 323 l 1
 156 326 l 1
 164 336 l 1
 164 612 l 1
 158 619 l 1
 69 607 l 1
 69 635 l 1
 205 676 l 1xbf40
628 671 m 1x4080
 698 671 l 1
 271 0 l 1
 200 0 l 1
 628 671 l 1x4080
757 379 m 1xbf40
 818 379 l 1
 818 146 l 1
 890 146 l 1
 890 101 l 1
 818 101 l 1
 818 -17 l 1
 745 -17 l 1
 745 101 l 1
 549 101 l 1
 549 147 l 1
 757 379 l 1xbf40
745 302 m 1
 606 146 l 1
 745 146 l 1
 745 302 l 1
EndSplineSet
EndChar
StartChar: onehalf
Encoding: 326 189 219
Width: 899
Flags: W
HStem: 0 57<642 818 642 868> 0 671<200 698 200 698 563 698 628 698 628 868> 295 28<93 312 93 93> 347 35<684.5 714> 607 28<69 69> 665 11
VStem: 164 82<336 612 612 612> 200 498 768 87<237.5 293>
LayerCount: 2
Fore
SplineSet
205 676 m 1xbe80
 246 676 l 1
 246 334 l 1
 253 325 l 1
 312 323 l 1
 312 295 l 1
 93 295 l 1
 93 323 l 1
 156 326 l 1
 164 336 l 1
 164 612 l 1
 158 619 l 1
 69 607 l 1
 69 635 l 1
 205 676 l 1xbe80
628 671 m 1x41
 698 671 l 1
 271 0 l 1
 200 0 l 1
 628 671 l 1x41
642 57 m 1xbe80
 818 57 l 1
 830 106 l 1
 868 106 l 1
 868 0 l 1
 563 0 l 1
 563 44 l 1
 696 136 768 198 768 268 c 0
 768 318 738 347 690 347 c 0
 679 347 667 344 654 340 c 1
 654 268 l 1
 640 261 627 258 614 258 c 0
 587 258 569 273 569 297 c 0
 569 343 626 382 717 382 c 0
 801 382 855 338 855 273 c 0
 855 202 782 142 642 57 c 1xbe80
EndSplineSet
EndChar
StartChar: threequarters
Encoding: 331 190 224
Width: 899
Flags: W
HStem: -17 11 0 671<200 698 200 698> 101 45<606 745 606 745 818 890> 289 33<153 183 153 208> 368 11 469 37<152.5 165.5 118 183.5> 641 36<145.5 174>
VStem: 200 498 229 85<560 594> 244 85<378 420.5> 745 73<-17 101 -17 101 146 302 302 302>
LayerCount: 2
Fore
SplineSet
210 493 m 1x0680
 287 488 329 454 329 403 c 0
 329 340 262 289 154 289 c 0
 76 289 26 322 26 359 c 0
 26 381 44 395 71 395 c 0
 79 395 86 394 96 391 c 1
 116 330 l 1
 132 325 147 322 159 322 c 0
 207 322 244 356 244 400 c 0xb860
 244 441 210 469 157 469 c 0
 148 469 135 468 118 466 c 1
 118 506 l 1
 124 506 130 506 136 506 c 0
 195 506 229 531 229 574 c 0
 229 614 197 641 151 641 c 0
 140 641 128 639 115 634 c 1
 115 569 l 1
 105 563 95 561 82 561 c 0
 55 561 37 577 37 600 c 0
 37 640 91 677 177 677 c 0
 261 677 314 637 314 582 c 0
 314 538 278 507 210 493 c 1x0680
628 671 m 1x41
 698 671 l 1
 271 0 l 1
 200 0 l 1
 628 671 l 1x41
757 379 m 1xb860
 818 379 l 1
 818 146 l 1
 890 146 l 1
 890 101 l 1
 818 101 l 1
 818 -17 l 1
 745 -17 l 1
 745 101 l 1
 549 101 l 1
 549 147 l 1
 757 379 l 1xb860
745 302 m 1
 606 146 l 1
 745 146 l 1
 745 302 l 1
EndSplineSet
EndChar
StartChar: questiondown
Encoding: 191 191 122
Width: 487
Flags: MW
HStem: -8 59<297 300 297 317> 531 152<257 298.5>
VStem: 38 130<137.5 216.5 137.5 226> 203 150<586.5 629>
LayerCount: 2
Fore
SplineSet
278 683 m 0
 319 683 353 650 353 608 c 0
 353 565 319 531 278 531 c 0
 236 531 203 565 203 608 c 0
 203 650 236 683 278 683 c 0
247 483 m 1
 312 483 l 1
 312 348 l 1
 217 315 168 256 168 177 c 0
 168 98 215 51 297 51 c 0
 298 51 299 51 300 51 c 2
 345 164 l 1
 352 165 358 165 365 165 c 0
 412 165 439 142 439 103 c 0
 439 43 372 -8 262 -8 c 0
 125 -8 38 69 38 177 c 0
 38 275 108 347 247 392 c 1
 247 483 l 1
EndSplineSet
EndChar
StartChar: Aring
Encoding: 260 197 153
Width: 651
Flags: MW
HStem: 0 49<-11 204 -11 -11> 238 56<210 386 210 409 191 386> 658 20<275 380 380 380> 726 52<298.5 334 298.5 348.5> 911 52<298.5 334>
VStem: -11 211 252 129<825.5 862.5 825.5 863> 433 236
LayerCount: 2
Fore
SplineSet
316 963 m 0
 381 963 433 910 433 844 c 0
 433 778 381 726 316 726 c 0
 251 726 200 777 200 844 c 0
 200 910 251 963 316 963 c 0
316 911 m 0
 281 911 252 882 252 844 c 0
 252 807 281 778 316 778 c 0
 352 778 381 807 381 844 c 0
 381 881 352 911 316 911 c 0
275 678 m 1
 380 678 l 1
 610 59 l 1
 669 49 l 1
 669 0 l 1
 399 0 l 1
 399 49 l 1
 462 55 l 1
 469 68 l 1
 409 238 l 1
 191 238 l 1
 131 69 l 1
 141 56 l 1
 204 49 l 1
 204 0 l 1
 -11 0 l 1
 -11 49 l 1
 49 58 l 1
 275 678 l 1
297 541 m 1
 210 294 l 1
 386 294 l 1
 297 541 l 1
EndSplineSet
EndChar
StartChar: AE
Encoding: 225 198 137
Width: 890
Flags: MW
HStem: 0 57<544 764 544 863> 245 59<229 417 229 417 194 417> 317 60<544 663 544 663> 615 56<544 732 544 544>
VStem: 417 127<70 245 245 245 304 317 377 615>
LayerCount: 2
Fore
SplineSet
262 671 m 1
 830 671 l 1
 830 514 l 1
 760 514 l 1
 745 602 l 1
 732 615 l 1
 544 615 l 1
 544 377 l 1
 663 377 l 1
 677 391 l 1
 687 463 l 1
 745 463 l 1
 745 231 l 1
 687 231 l 1
 677 303 l 1
 663 317 l 1
 544 317 l 1
 544 57 l 1
 764 57 l 1
 778 73 l 1
 795 179 l 1
 863 179 l 1
 863 0 l 1
 340 0 l 1
 340 49 l 1
 401 54 l 1
 417 70 l 1
 417 245 l 1
 194 245 l 1
 89 69 l 1
 96 56 l 1
 156 49 l 1
 156 0 l 1
 -58 0 l 1
 -58 49 l 1
 2 56 l 1
 330 602 l 1
 319 617 l 1
 262 622 l 1
 262 671 l 1
417 616 m 1
 229 304 l 1
 417 304 l 1
 417 616 l 1
EndSplineSet
EndChar
StartChar: Eth
Encoding: 317 208 210
Width: 716
Flags: MW
HStem: 0 56<238 296 296 320> 321 61<15 105 15 105 238 379> 615 56<238 238 238 296>
VStem: 105 133<70 321 56 321 382 601 601 601> 532 149<242.5 430>
LayerCount: 2
Fore
SplineSet
29 671 m 1
 320 671 l 2
 552 671 681 545 681 335 c 0
 681 122 554 0 320 0 c 2
 29 0 l 1
 29 49 l 1
 89 54 l 1
 105 70 l 1
 105 321 l 1
 15 321 l 1
 15 382 l 1
 105 382 l 1
 105 601 l 1
 89 617 l 1
 29 622 l 1
 29 671 l 1
238 615 m 1
 238 382 l 1
 379 382 l 1
 379 321 l 1
 238 321 l 1
 238 56 l 1
 296 56 l 2
 455 56 532 149 532 336 c 0
 532 524 455 615 296 615 c 2
 238 615 l 1
EndSplineSet
EndChar
StartChar: multiply
Encoding: 325 215 218
Width: 833
Flags: MW
HStem: 16 564<197 197 197 646>
VStem: 140 563<74 74 74 523>
LayerCount: 2
Fore
SplineSet
421 356 m 1
 646 580 l 1
 703 523 l 1
 479 298 l 1
 703 74 l 1
 646 16 l 1
 421 241 l 1
 197 16 l 1
 140 74 l 1
 364 298 l 1
 140 523 l 1
 197 580 l 1
 421 356 l 1
EndSplineSet
EndChar
StartChar: Oslash
Encoding: 233 216 140
Width: 752
Flags: MW
HStem: -16 62<358 420> 622 64<323.5 400>
VStem: 41 143<306 430 306 441> 573 145<281 368.5>
LayerCount: 2
Fore
SplineSet
583 753 m 1
 632 725 l 1
 575 627 l 1
 668 553 718 462 718 334 c 0
 718 228 679 135 609 70 c 0
 548 13 467 -16 373 -16 c 0
 319 -16 269 -5 221 19 c 1
 162 -83 l 1
 116 -50 l 1
 173 48 l 1
 87 115 41 215 41 334 c 0
 41 548 176 686 381 686 c 0
 431 686 479 676 526 656 c 1
 583 753 l 1
485 584 m 1
 454 610 420 622 380 622 c 0
 267 622 184 516 184 344 c 0
 184 268 198 202 228 142 c 1
 485 584 l 1
524 538 m 1
 264 92 l 1
 298 61 336 46 380 46 c 0
 491 46 573 154 573 327 c 0
 573 410 560 479 524 538 c 1
EndSplineSet
EndChar
StartChar: Thorn
Encoding: 318 222 211
Width: 587
Flags: MW
HStem: 0 49<32 323 32 32> 128 58<302.5 329 270.5 393> 492 56<272 298 298 330> 622 49<32 323 32 323>
VStem: 109 132<70 131 188 490 548 601> 434 138<291 393.5>
LayerCount: 2
Fore
SplineSet
32 671 m 1
 323 671 l 1
 323 622 l 1
 257 617 l 1
 241 601 l 1
 241 548 l 1
 298 548 l 2
 483 548 572 489 572 347 c 0
 572 210 477 128 309 128 c 0
 296 128 273 129 241 131 c 1
 241 70 l 1
 257 54 l 1
 323 49 l 1
 323 0 l 1
 32 0 l 1
 32 49 l 1
 92 54 l 1
 109 70 l 1
 109 603 l 1
 95 617 l 1
 32 622 l 1
 32 671 l 1
241 188 m 1
 253 187 265 186 276 186 c 0
 382 186 434 238 434 344 c 0
 434 443 382 492 278 492 c 0
 266 492 254 491 241 490 c 1
 241 188 l 1
EndSplineSet
EndChar
StartChar: germandbls
Encoding: 251 223 148
Width: 642
Flags: W
HStem: -8 55<414 449.5 414 487.5> 0 44<18 245> 684 58<290.5 359>
VStem: 84 125<64 438 438 445 64 534> 299 120<378 394> 507 115<108.5 152>
LayerCount: 2
Fore
SplineSet
538 471 m 1x7c
 529 472 520 473 511 473 c 0
 453 473 419 444 419 400 c 0
 419 356 451 339 498 311 c 0
 577 264 622 228 622 154 c 0
 622 63 545 -8 430 -8 c 0
 394 -8 351 -2 300 12 c 1
 300 155 l 1
 362 155 l 1
 370 62 l 1
 386 52 404 47 424 47 c 0x8c
 475 47 507 78 507 122 c 0
 507 182 453 203 369 250 c 0
 325 275 299 316 299 363 c 0
 299 425 341 477 413 494 c 1
 419 526 423 551 423 570 c 0
 423 640 386 684 332 684 c 0
 249 684 209 604 209 445 c 2
 209 64 l 1
 213 49 l 1
 245 44 l 1
 245 0 l 1
 18 0 l 1
 18 46 l 1
 74 50 l 1
 84 64 l 1
 84 438 l 2
 84 630 194 742 355 742 c 0
 475 742 549 672 549 563 c 0
 549 532 545 502 538 471 c 1x7c
EndSplineSet
EndChar
StartChar: aring
Encoding: 288 229 181
Width: 544
Flags: W
HStem: -9 9 44 24 261 51<343 344> 446 53<241.5 282> 546 52<258.5 293.5 258.5 308.5> 731 52<258.5 294>
VStem: 40 132<120 176 120 178.5> 159 53<646.5 684 646.5 697.5> 341 127 343 50
LayerCount: 2
Fore
SplineSet
276 783 m 0x0d40
 341 783 393 731 393 665 c 0
 393 599 341 546 276 546 c 0
 211 546 159 598 159 665 c 0
 159 730 212 783 276 783 c 0x0d40
276 731 m 0x0d80
 241 731 212 703 212 665 c 0
 212 628 241 598 276 598 c 0
 311 598 341 628 341 665 c 0
 341 702 312 731 276 731 c 0x0d80
468 322 m 2xb280
 468 63 l 1xb280
 481 49 l 1
 534 44 l 1
 534 0 l 1
 356 0 l 1
 343 57 l 1xe240
 279 14 225 -9 171 -9 c 0
 94 -9 40 45 40 121 c 0
 40 236 135 265 344 312 c 1
 344 342 l 2
 344 414 315 446 249 446 c 0
 234 446 219 444 201 440 c 1
 201 346 l 1
 109 346 l 2
 79 346 63 356 63 383 c 0
 63 440 149 499 281 499 c 0
 421 499 468 450 468 322 c 2xb280
343 261 m 1xe240
 225 235 172 209 172 143 c 0
 172 97 200 68 246 68 c 0
 272 68 304 78 343 98 c 1
 343 261 l 1xe240
EndSplineSet
EndChar
StartChar: ae
Encoding: 241 230 143
Width: 768
Flags: MW
HStem: -10 78<131 250> 252 52<446 607 444 734 446 446> 443 55<526.5 555.5>
VStem: 41 128<120 176 120 179> 328 118<131 252 131 261 131 261 131 342 131 378.5> 607 128<304 318 315.5 347 272 359.5>
LayerCount: 2
Fore
SplineSet
194 346 m 1
 105 346 l 2
 76 346 63 356 63 383 c 0
 63 441 145 499 271 499 c 0
 335 499 381 483 415 444 c 1
 453 480 500 498 553 498 c 0
 666 498 735 418 735 276 c 0
 735 268 734 260 734 252 c 1
 446 252 l 1
 446 131 l 1
 490 91 538 71 594 71 c 0
 644 71 687 89 734 124 c 1
 734 50 l 1
 676 11 616 -9 552 -9 c 0
 478 -9 412 16 358 64 c 1
 291 15 230 -10 171 -10 c 0
 91 -10 41 42 41 124 c 0
 41 234 130 265 328 312 c 1
 328 342 l 2
 328 415 300 446 234 446 c 0
 224 446 210 444 194 440 c 1
 194 346 l 1
328 98 m 1
 328 261 l 1
 217 231 169 209 169 143 c 0
 169 97 196 68 238 68 c 0
 262 68 291 78 328 98 c 1
444 304 m 1
 607 304 l 1
 607 309 607 313 607 318 c 0
 607 401 581 443 530 443 c 0
 474 443 445 396 444 304 c 1
EndSplineSet
EndChar
StartChar: eth
Encoding: 323 240 216
Width: 569
Flags: MW
HStem: -9 53<253.5 328 253.5 366> 436 50<265.5 287 205 317.5> 724 20<270 270>
VStem: 35 137<177.5 305 177.5 315> 408 131<187 290.5>
LayerCount: 2
Fore
SplineSet
346 481 m 1
 324 517 301 548 276 578 c 1
 156 507 l 1
 132 551 l 1
 241 615 l 1
 209 651 l 1
 128 655 l 1
 125 690 l 1
 270 744 l 1
 345 669 l 1
 452 731 l 1
 477 688 l 1
 377 629 l 1
 485 503 539 384 539 265 c 0
 539 96 439 -9 293 -9 c 0
 135 -9 35 91 35 243 c 0
 35 387 135 486 275 486 c 0
 299 486 322 485 346 481 c 1
373 424 m 1
 348 432 327 436 308 436 c 0
 223 436 172 368 172 242 c 0
 172 113 216 44 291 44 c 0
 365 44 408 117 408 257 c 0
 408 324 397 378 373 424 c 1
EndSplineSet
EndChar
StartChar: divide
Encoding: 322 247 215
Width: 833
Flags: MW
HStem: 46 133<399 435.5 399 436> 258 81<124 709 124 709> 417 134<399 435.5 399 436>
VStem: 350 134<94 130.5 94 130.5 465 501.5>
LayerCount: 2
Fore
SplineSet
417 551 m 0
 454 551 484 520 484 483 c 0
 484 447 455 417 417 417 c 0
 379 417 350 446 350 483 c 0
 350 520 381 551 417 551 c 0
709 339 m 1
 709 258 l 1
 124 258 l 1
 124 339 l 1
 709 339 l 1
417 179 m 0
 454 179 484 149 484 112 c 0
 484 76 455 46 417 46 c 0
 379 46 350 75 350 112 c 0
 350 149 381 179 417 179 c 0
EndSplineSet
EndChar
StartChar: oslash
Encoding: 249 248 146
Width: 577
Flags: MW
HStem: -8 53<278 328.5 274.5 373> 446 52<254.5 302.5>
VStem: 37 133<229.5 313.5 229.5 321.5> 413 134<175 265.5>
LayerCount: 2
Fore
SplineSet
438 571 m 1
 480 547 l 1
 433 463 l 1
 508 417 547 344 547 247 c 0
 547 93 446 -8 300 -8 c 0
 256 -8 217 -3 180 12 c 1
 126 -83 l 1
 85 -56 l 1
 137 35 l 1
 70 84 37 154 37 244 c 0
 37 399 136 498 295 498 c 0
 327 498 358 493 389 483 c 1
 438 571 l 1
355 424 m 1
 335 439 315 446 290 446 c 0
 219 446 170 376 170 251 c 0
 170 208 176 167 188 128 c 1
 355 424 l 1
386 381 m 1
 217 78 l 1
 235 56 259 45 290 45 c 0
 367 45 413 113 413 237 c 0
 413 294 406 341 386 381 c 1
EndSplineSet
EndChar
StartChar: thorn
Encoding: 330 254 223
Width: 591
Flags: MW
HStem: -219 46<25 25 25 293> -1 54<286 323 269 378.5> 413 86<282 426> 652 39<20 93 20 20> 719 20<171 215 215 215>
VStem: 93 122<-153 5 60 394 436 652 652 652> 427 135<186 299.5>
LayerCount: 2
Fore
SplineSet
25 -219 m 1
 25 -173 l 1
 80 -168 l 1
 93 -153 l 1
 93 652 l 1
 20 652 l 1
 20 691 l 1
 171 739 l 1
 215 739 l 1
 215 436 l 1
 274 477 324 499 373 499 c 0
 479 499 562 403 562 263 c 0
 562 103 460 -1 297 -1 c 0
 275 -1 248 1 215 5 c 1
 215 -155 l 1
 230 -169 l 1
 294 -173 l 1
 293 -219 l 1
 25 -219 l 1
215 60 m 1
 238 55 259 53 279 53 c 0
 367 53 427 126 427 246 c 0
 427 353 375 413 294 413 c 0
 270 413 244 406 215 394 c 1
 215 60 l 1
EndSplineSet
EndChar
StartChar: dotlessi
Encoding: 245 305 144
Width: 305
Flags: MW
HStem: 0 45<30 292 30 30> 409 40<32 98 32 32> 476 20<173 221 221 221>
VStem: 98 123<64 409 409 409>
LayerCount: 2
Fore
SplineSet
173 496 m 1
 221 496 l 1
 221 64 l 1
 236 49 l 1
 292 45 l 1
 292 0 l 1
 30 0 l 1
 30 45 l 1
 84 49 l 1
 98 64 l 1
 98 409 l 1
 32 409 l 1
 32 449 l 1
 173 496 l 1
EndSplineSet
EndChar
StartChar: Lslash
Encoding: 232 321 139
Width: 543
Flags: MW
HStem: 0 58<237 430 237 532> 622 49<27 315 27 315>
VStem: 105 132<70 276 276 276 341 362 428 603>
LayerCount: 2
Fore
SplineSet
27 671 m 1
 315 671 l 1
 315 622 l 1
 254 617 l 1
 237 603 l 1
 237 428 l 1
 334 493 l 1
 365 448 l 1
 237 362 l 1
 237 58 l 1
 430 58 l 1
 442 74 l 1
 457 196 l 1
 532 196 l 1
 532 0 l 1
 27 0 l 1
 27 49 l 1
 88 54 l 1
 105 70 l 1
 105 276 l 1
 35 228 l 1
 9 275 l 1
 105 341 l 1
 105 603 l 1
 91 617 l 1
 27 622 l 1
 27 671 l 1
EndSplineSet
EndChar
StartChar: lslash
Encoding: 248 322 145
Width: 304
Flags: MW
HStem: 0 44<23 291 23 23> 652 39<23 95 23 23> 719 20<174 218 218 218>
VStem: 95 123<66 291 291 291 355 375 66 652>
LayerCount: 2
Fore
SplineSet
174 739 m 1
 218 739 l 1
 219 441 l 1
 297 496 l 1
 328 451 l 1
 218 375 l 1
 218 66 l 1
 233 50 l 1
 291 44 l 1
 291 0 l 1
 23 0 l 1
 23 44 l 1
 81 50 l 1
 95 64 l 1
 95 291 l 1
 26 242 l 1
 -2 288 l 1
 95 355 l 1
 95 652 l 1
 23 652 l 1
 23 691 l 1
 174 739 l 1
EndSplineSet
EndChar
StartChar: OE
Encoding: 234 338 141
Width: 1010
Flags: W
HStem: -11 68 0 55 319 58<662 780 662 781> 615 66 616 55
VStem: 40 147<267.5 425 248.5 440> 542 120<245.5 319 377 422>
LayerCount: 2
Fore
SplineSet
365 616 m 0x4e
 262 616 187 512 187 338 c 0
 187 159 264 55 364 55 c 0
 467 55 542 159 542 332 c 0
 542 512 468 616 365 616 c 0x4e
540 578 m 1xb6
 540 671 l 1
 947 671 l 1x4e
 947 514 l 1
 878 514 l 1
 865 596 l 1
 848 615 l 1
 662 615 l 1
 662 377 l 1
 781 377 l 1
 795 391 l 1
 803 463 l 1
 862 463 l 1
 862 231 l 1
 803 231 l 1
 795 302 l 1
 780 319 l 1
 662 319 l 1
 662 57 l 1
 881 57 l 1xb6
 895 73 l 1
 912 179 l 1
 980 179 l 1
 980 0 l 1
 540 0 l 1x4e
 540 98 l 1
 486 24 420 -11 335 -11 c 0
 280 -11 229 4 186 32 c 0
 95 91 40 199 40 336 c 0
 40 544 165 681 345 681 c 0
 433 681 501 645 540 578 c 1xb6
EndSplineSet
EndChar
StartChar: oe
Encoding: 250 339 147
Width: 861
Flags: MW
HStem: -8 53<249 313> 255 53<522 696 522 827 518 696> 445 54<599.5 641.5>
VStem: 37 135<181 311.5 181 321> 392 126<255 255 255 309.5> 696 131<255 320 255 361>
LayerCount: 2
Fore
SplineSet
282 446 m 0
 215 446 172 376 172 247 c 0
 172 115 215 45 283 45 c 0
 351 45 392 114 392 244 c 0
 392 375 350 446 282 446 c 0
696 308 m 1
 696 312 696 316 696 320 c 0
 696 402 667 445 616 445 c 0
 563 445 526 397 522 308 c 1
 696 308 l 1
827 255 m 1
 518 255 l 1
 519 139 578 72 674 72 c 0
 729 72 774 89 825 124 c 1
 825 50 l 1
 765 11 702 -8 636 -8 c 0
 563 -8 505 18 458 71 c 1
 406 17 349 -8 277 -8 c 0
 134 -8 37 92 37 244 c 0
 37 398 135 498 280 498 c 0
 357 498 418 471 463 419 c 1
 509 472 566 499 633 499 c 0
 754 499 827 418 827 275 c 0
 827 268 827 262 827 255 c 1
EndSplineSet
EndChar
StartChar: florin
Encoding: 166 402 100
Width: 581
Flags: MW
HStem: -148 56<75 167> 309 60<105 215 105 215 105 217 338 338 338 493> 628 55<381 467.5>
VStem: 217 121<105 309 309 309>
LayerCount: 2
Fore
SplineSet
105 309 m 1
 105 369 l 1
 215 369 l 1
 215 376 215 382 215 388 c 0
 215 487 230 556 272 604 c 0
 316 653 384 683 440 683 c 0
 495 683 535 647 535 606 c 0
 535 577 514 552 474 533 c 1
 381 628 l 1
 340 587 336 532 336 453 c 0
 336 445 336 417 337 369 c 1
 493 369 l 1
 493 309 l 1
 338 309 l 1
 339 281 340 255 340 230 c 0
 340 119 328 40 303 -10 c 0
 258 -98 179 -148 103 -148 c 0
 47 -148 12 -119 12 -80 c 0
 12 -52 31 -24 66 -7 c 1
 167 -92 l 1
 209 -52 217 11 217 105 c 2
 217 309 l 1
 105 309 l 1
EndSplineSet
EndChar
StartChar: circumflex
Encoding: 195 710 125
Width: 500
Flags: MW
HStem: 552 190<96 294 96 294 206 404 206 327>
VStem: 96 308<552 552>
LayerCount: 2
Fore
SplineSet
206 742 m 1
 294 742 l 1
 404 552 l 1
 327 552 l 1
 250 677 l 1
 174 552 l 1
 96 552 l 1
 206 742 l 1
EndSplineSet
EndChar
StartChar: caron
Encoding: 207 711 135
Width: 500
Flags: MW
HStem: 551 190<96 294 96 206>
VStem: 96 308<741 741>
LayerCount: 2
Fore
SplineSet
96 741 m 1
 174 741 l 1
 250 616 l 1
 327 741 l 1
 404 741 l 1
 294 551 l 1
 206 551 l 1
 96 741 l 1
EndSplineSet
EndChar
StartChar: breve
Encoding: 198 728 128
Width: 500
Flags: MW
HStem: 567 71<214.5 287.5 214.5 305>
VStem: 98 305<705 710 710 719 716.5 719>
LayerCount: 2
Fore
SplineSet
98 719 m 1
 149 718 l 2
 149 716 149 714 149 712 c 0
 149 655 178 638 251 638 c 0
 324 638 352 656 352 712 c 0
 352 714 352 716 352 718 c 2
 403 719 l 1
 403 715 403 712 403 708 c 0
 403 605 359 567 251 567 c 0
 143 567 98 604 98 705 c 0
 98 710 98 714 98 719 c 1
EndSplineSet
EndChar
StartChar: dotaccent
Encoding: 199 729 129
Width: 500
Flags: MW
HStem: 579 134<232 267.5 232 268>
VStem: 185 130<627 664 627 664>
LayerCount: 2
Fore
SplineSet
250 713 m 0
 285 713 315 683 315 645 c 0
 315 609 286 579 250 579 c 0
 213 579 185 608 185 645 c 0
 185 683 214 713 250 713 c 0
EndSplineSet
EndChar
StartChar: ring
Encoding: 202 730 131
Width: 500
Flags: MW
HStem: 546 52<232 268.5 232 283.5> 731 52<232 268.5>
VStem: 132 52<647 683.5 647 698> 317 52<647 683.5>
LayerCount: 2
Fore
SplineSet
250 783 m 0
 316 783 369 731 369 665 c 0
 369 599 317 546 250 546 c 0
 183 546 132 598 132 665 c 0
 132 731 184 783 250 783 c 0
250 731 m 0
 214 731 184 702 184 665 c 0
 184 629 214 598 250 598 c 0
 287 598 317 629 317 665 c 0
 317 702 287 731 250 731 c 0
EndSplineSet
EndChar
StartChar: ogonek
Encoding: 206 731 134
Width: 500
Flags: MW
HStem: -224 72<287 289.5> -20 20<245 299 299 299>
VStem: 176 73<-116 -112.5>
LayerCount: 2
Fore
SplineSet
245 0 m 1
 299 0 l 1
 266 -30 249 -66 249 -99 c 0
 249 -133 269 -152 305 -152 c 0
 313 -152 323 -151 336 -149 c 1
 336 -217 l 1
 317 -222 298 -224 281 -224 c 0
 212 -224 176 -192 176 -134 c 0
 176 -91 200 -40 245 0 c 1
EndSplineSet
EndChar
StartChar: tilde
Encoding: 196 732 126
Width: 500
Flags: MW
HStem: 570 152
VStem: 87 324<570 708.5 584.5 708.5>
LayerCount: 2
Fore
SplineSet
357 722 m 1
 411 722 l 1
 411 717 411 711 411 706 c 0
 411 629 377 587 324 587 c 0
 259 587 209 633 179 633 c 0
 155 633 142 614 142 580 c 0
 142 577 142 574 142 570 c 1
 87 570 l 1
 87 576 87 582 87 587 c 0
 87 664 119 706 174 706 c 0
 233 706 283 659 318 659 c 0
 344 659 357 677 357 714 c 0
 357 716 357 719 357 722 c 1
EndSplineSet
EndChar
StartChar: hungarumlaut
Encoding: 205 733 133
Width: 500
Flags: W
HStem: 552 190<108 311 108 311 239 239 239 305>
VStem: 108 203<552 742> 239 250<552 742>
LayerCount: 2
Fore
SplineSet
202 742 m 1xc0
 311 742 l 1
 166 552 l 1
 108 552 l 1
 202 742 l 1xc0
366 742 m 1xa0
 489 742 l 1
 305 552 l 1
 239 552 l 1
 366 742 l 1xa0
EndSplineSet
EndChar
StartChar: endash
Encoding: 177 8211 110
Width: 500
Flags: MW
HStem: 195 91<0 500 0 500>
VStem: 0 500<195 286 195 286>
LayerCount: 2
Fore
SplineSet
0 286 m 1
 500 286 l 1
 500 195 l 1
 0 195 l 1
 0 286 l 1
EndSplineSet
EndChar
StartChar: emdash
Encoding: 208 8212 136
Width: 1000
Flags: MW
HStem: 196 90<0 1000 0 1000>
VStem: 0 1000<196 286 196 286>
LayerCount: 2
Fore
SplineSet
0 196 m 1
 0 286 l 1
 1000 286 l 1
 1000 196 l 1
 0 196 l 1
EndSplineSet
EndChar
StartChar: quoteleft
Encoding: 96 8216 64
Width: 255
Flags: MW
HStem: 395 303<112 200>
VStem: 50 158<466.5 474.5 444.5 540>
LayerCount: 2
Fore
SplineSet
200 698 m 1
 221 668 l 1
 159 630 128 584 128 532 c 0
 128 526 128 521 129 515 c 1
 189 515 l 1
 201 500 208 484 208 465 c 0
 208 424 179 395 138 395 c 0
 86 395 50 435 50 498 c 0
 50 582 102 654 200 698 c 1
EndSplineSet
EndChar
StartChar: quoteright
Encoding: 39 8217 7
Width: 255
Flags: MW
HStem: 395 303<69 156.5>
VStem: 61 158<619.5 626 553 649.5>
LayerCount: 2
Fore
SplineSet
69 395 m 1
 48 425 l 1
 110 462 141 509 141 562 c 0
 141 567 141 572 140 578 c 1
 80 578 l 1
 68 593 61 610 61 629 c 0
 61 670 88 698 130 698 c 0
 183 698 219 658 219 594 c 0
 219 512 167 438 69 395 c 1
EndSplineSet
EndChar
StartChar: quotesinglbase
Encoding: 184 8218 116
Width: 255
Flags: MW
HStem: -174 303<55 141.5>
VStem: 47 157<50.5 57.5 -15.5 80.5>
LayerCount: 2
Fore
SplineSet
55 -174 m 1
 33 -144 l 1
 95 -106 126 -60 126 -7 c 0
 126 -1 126 4 125 10 c 1
 65 10 l 1
 53 25 47 41 47 60 c 0
 47 101 73 129 115 129 c 0
 168 129 204 89 204 26 c 0
 204 -57 153 -130 55 -174 c 1
EndSplineSet
EndChar
StartChar: quotedblleft
Encoding: 170 8220 104
Width: 475
Flags: MW
HStem: 395 303<113 200 200 380>
VStem: 50 158<466.5 473.5 443.5 540> 271 158<467.5 474.5 444.5 540.5>
LayerCount: 2
Fore
SplineSet
200 698 m 1
 222 668 l 1
 159 630 128 583 128 531 c 0
 128 526 128 520 129 515 c 1
 190 515 l 1
 203 500 208 483 208 464 c 0
 208 423 181 395 139 395 c 0
 87 395 50 435 50 498 c 0
 50 582 101 654 200 698 c 1
421 698 m 1
 443 668 l 1
 380 630 349 584 349 531 c 0
 349 526 349 521 350 515 c 1
 410 515 l 1
 422 500 429 484 429 465 c 0
 429 424 401 395 359 395 c 0
 307 395 271 436 271 499 c 0
 271 582 323 654 421 698 c 1
EndSplineSet
EndChar
StartChar: quotedblright
Encoding: 186 8221 118
Width: 475
Flags: MW
HStem: 395 303<69 157.5 110 290>
VStem: 61 159<619 626 553 649.5> 282 158<618.5 626 553 649>
LayerCount: 2
Fore
SplineSet
69 395 m 1
 48 425 l 1
 111 463 142 510 142 562 c 0
 142 567 142 573 141 578 c 1
 80 578 l 1
 67 592 61 609 61 629 c 0
 61 670 89 698 131 698 c 0
 184 698 220 657 220 595 c 0
 220 511 167 437 69 395 c 1
290 395 m 1
 269 425 l 1
 331 463 362 509 362 561 c 0
 362 567 362 572 361 578 c 1
 301 578 l 1
 288 592 282 609 282 628 c 0
 282 670 309 698 351 698 c 0
 404 698 440 657 440 595 c 0
 440 511 388 438 290 395 c 1
EndSplineSet
EndChar
StartChar: quotedblbase
Encoding: 185 8222 117
Width: 475
Flags: MW
HStem: -174 303<57 145.5 98 278>
VStem: 49 159<50 58 -15 81> 270 158<50.5 57.5 -15.5 80.5>
LayerCount: 2
Fore
SplineSet
57 -174 m 1
 36 -144 l 1
 98 -106 129 -59 129 -7 c 0
 129 -1 129 4 128 10 c 1
 68 10 l 1
 55 24 49 40 49 60 c 0
 49 102 77 129 119 129 c 0
 172 129 208 89 208 27 c 0
 208 -57 155 -131 57 -174 c 1
278 -174 m 1
 257 -144 l 1
 319 -105 350 -60 350 -7 c 0
 350 -1 350 4 349 10 c 1
 289 10 l 1
 276 24 270 41 270 60 c 0
 270 101 297 129 339 129 c 0
 392 129 428 89 428 26 c 0
 428 -57 376 -130 278 -174 c 1
EndSplineSet
EndChar
StartChar: dagger
Encoding: 178 8224 111
Width: 500
Flags: MW
HStem: -130 20 460 42<242 259 242 259> 698 20<250 250>
LayerCount: 2
Fore
SplineSet
250 718 m 1
 303 642 l 1
 259 502 l 1
 242 502 l 1
 196 642 l 1
 250 718 l 1
88 535 m 1
 232 490 l 1
 232 471 l 1
 88 431 l 1
 17 483 l 1
 88 535 l 1
410 535 m 1
 483 483 l 1
 410 431 l 1
 269 471 l 1
 269 490 l 1
 410 535 l 1
242 460 m 1
 259 460 l 1
 309 294 l 1
 259 -130 l 1
 242 -130 l 1
 193 294 l 1
 242 460 l 1
EndSplineSet
EndChar
StartChar: daggerdbl
Encoding: 179 8225 112
Width: 500
Flags: MW
HStem: -132 20 84 43<243 258 243 259 243 259> 460 42<243 258 258 258> 698 20<250 250>
LayerCount: 2
Fore
SplineSet
250 718 m 1
 302 642 l 1
 259 502 l 1
 243 502 l 1
 199 642 l 1
 250 718 l 1
88 535 m 1
 232 490 l 1
 232 471 l 1
 88 431 l 1
 17 483 l 1
 88 535 l 1
410 535 m 1
 483 483 l 1
 410 431 l 1
 269 471 l 1
 269 490 l 1
 410 535 l 1
243 460 m 1
 258 460 l 1
 310 294 l 1
 258 127 l 1
 243 127 l 1
 187 294 l 1
 243 460 l 1
88 157 m 1
 232 112 l 1
 232 94 l 1
 88 53 l 1
 17 105 l 1
 88 157 l 1
410 157 m 1
 483 105 l 1
 410 53 l 1
 269 94 l 1
 269 112 l 1
 410 157 l 1
243 84 m 1
 259 84 l 1
 302 -56 l 1
 250 -132 l 1
 199 -56 l 1
 243 84 l 1
EndSplineSet
EndChar
StartChar: ellipsis
Encoding: 188 8230 120
Width: 1000
Flags: MW
HStem: -8 159<144.5 188 477.5 521 811.5 855>
VStem: 88 158<49 93 49 93.5> 421 158<49 93 49 93.5> 755 158<49 93 49 93.5>
LayerCount: 2
Fore
SplineSet
166 151 m 0
 210 151 246 115 246 71 c 0
 246 27 210 -8 166 -8 c 0
 123 -8 88 27 88 71 c 0
 88 116 123 151 166 151 c 0
499 151 m 0
 543 151 579 115 579 71 c 0
 579 27 543 -8 499 -8 c 0
 456 -8 421 27 421 71 c 0
 421 116 456 151 499 151 c 0
833 151 m 0
 877 151 913 115 913 71 c 0
 913 27 877 -8 833 -8 c 0
 790 -8 755 27 755 71 c 0
 755 116 790 151 833 151 c 0
EndSplineSet
EndChar
StartChar: perthousand
Encoding: 189 8240 121
Width: 1287
Flags: W
HStem: -12 45<671.5 716.5 671.5 747 1070.5 1115.5> 263 46<178 222.5 178 254> 363 44<672 716.5 1071 1115.5> 638 45<178 222.5>
VStem: 37 95<419.5 528.5 419.5 540> 271 99<419 528.5> 530 95<143.5 252.5 143.5 263.5> 764 99<143 252.5> 928 96<143.5 252.5 143.5 263.5> 1162 100<143 252.5>
LayerCount: 2
Fore
SplineSet
203 683 m 0
 304 683 370 605 370 474 c 0
 370 342 305 263 203 263 c 0
 101 263 37 341 37 474 c 0
 37 606 102 683 203 683 c 0
621 671 m 1
 691 671 l 1
 273 0 l 1
 203 0 l 1
 621 671 l 1
200 638 m 0xffc0
 156 638 132 583 132 474 c 0
 132 365 156 309 200 309 c 0
 245 309 271 364 271 474 c 0
 271 583 245 638 200 638 c 0xffc0
696 407 m 0
 797 407 863 328 863 198 c 0
 863 66 798 -12 696 -12 c 0
 594 -12 530 65 530 198 c 0
 530 329 595 407 696 407 c 0
1095 407 m 0
 1196 407 1262 328 1262 198 c 0
 1262 66 1197 -12 1095 -12 c 0
 993 -12 928 65 928 198 c 0
 928 329 994 407 1095 407 c 0
694 363 m 0
 650 363 625 307 625 198 c 0
 625 89 649 33 694 33 c 0
 739 33 764 88 764 198 c 0
 764 307 739 363 694 363 c 0
1093 363 m 0
 1049 363 1024 307 1024 198 c 0
 1024 89 1048 33 1093 33 c 0
 1138 33 1162 88 1162 198 c 0
 1162 307 1138 363 1093 363 c 0
EndSplineSet
EndChar
StartChar: guilsinglleft
Encoding: 172 8249 106
Width: 255
Flags: MW
HStem: 54 372<207 207>
VStem: 35 172<54 282 54 282>
LayerCount: 2
Fore
SplineSet
207 426 m 1
 207 342 l 1
 99 240 l 1
 207 138 l 1
 207 54 l 1
 35 198 l 1
 35 282 l 1
 207 426 l 1
EndSplineSet
EndChar
StartChar: guilsinglright
Encoding: 173 8250 107
Width: 255
Flags: MW
HStem: 54 372<38 38>
VStem: 38 172<54 282 138 282 198 426 198 426>
LayerCount: 2
Fore
SplineSet
38 426 m 1
 210 282 l 1
 210 198 l 1
 38 54 l 1
 38 138 l 1
 146 240 l 1
 38 342 l 1
 38 426 l 1
EndSplineSet
EndChar
StartChar: fraction
Encoding: 164 8260 98
Width: 167
Flags: MW
HStem: 0 671<-166 332 -166 332>
VStem: -166 498
LayerCount: 2
Fore
SplineSet
262 671 m 1
 332 671 l 1
 -95 0 l 1
 -166 0 l 1
 262 671 l 1
EndSplineSet
EndChar
StartChar: trademark
Encoding: 312 8482 205
Width: 800
Flags: MW
HStem: 398 25<163 290 163 163> 637 25<156 198 156 156 256 298 256 256>
VStem: 198 58<429 637 429 637> 398 32<429 628 429 631 429 631> 622 55<429 628 628 628>
LayerCount: 2
Fore
SplineSet
111 662 m 1
 342 662 l 1
 342 588 l 1
 312 588 l 1
 305 632 l 1
 298 637 l 1
 256 637 l 1
 256 429 l 1
 290 423 l 1
 290 398 l 1
 163 398 l 1
 163 423 l 1
 198 429 l 1
 198 637 l 1
 156 637 l 1
 149 632 l 1
 142 588 l 1
 111 588 l 1
 111 662 l 1
367 662 m 1
 480 662 l 1
 480 649 l 1
 538 480 l 1
 597 648 l 1
 597 662 l 1
 709 662 l 1
 709 636 l 1
 677 630 l 1
 677 429 l 1
 709 423 l 1
 709 398 l 1
 594 398 l 1
 594 422 l 1
 622 429 l 1
 622 628 l 1
 540 398 l 1
 509 398 l 1
 430 628 l 1
 430 429 l 1
 460 423 l 1
 460 398 l 1
 367 398 l 1
 367 423 l 1
 398 429 l 1
 398 631 l 1
 367 636 l 1
 367 662 l 1
EndSplineSet
EndChar
StartChar: fi
Encoding: 174 64257 108
Width: 622
Flags: W
HStem: 0 45<31 286 31 31> 414 60<218 415 218 437> 579 139<466.5 503.5> 693 52<254 341.5>
VStem: 96 122<64 414 64 414 482 486 485.5 532> 415 122<64 414 414 414> 418 135<629 668.5 629 669.5>
LayerCount: 2
Fore
SplineSet
351 612 m 1xdc
 254 693 l 1
 228 661 218 609 218 534 c 2
 218 474 l 1
 437 474 l 1
 492 501 l 1
 537 501 l 1
 537 64 l 1
 551 49 l 1
 604 45 l 1
 604 0 l 1
 349 0 l 1
 349 45 l 1
 400 49 l 1
 415 64 l 1
 415 414 l 1
 218 414 l 1
 218 64 l 1
 234 49 l 1
 286 45 l 1
 286 0 l 1
 31 0 l 1
 31 45 l 1
 81 49 l 1
 96 64 l 1
 96 414 l 1
 31 414 l 1
 31 452 l 1
 96 482 l 2
 96 483 96 485 96 486 c 0
 96 578 128 647 193 698 c 0
 232 729 278 745 316 745 c 0
 367 745 397 719 397 681 c 0
 397 654 381 630 351 612 c 1xdc
418 649 m 0x22
 418 690 446 718 487 718 c 0
 524 718 553 688 553 649 c 0
 553 609 522 579 485 579 c 0
 448 579 418 608 418 649 c 0x22
EndSplineSet
EndChar
StartChar: fl
Encoding: 175 64258 109
Width: 627
Flags: MW
HStem: 0 45<31 286 31 31> 414 60<218 353 218 353> 695 50<258 340>
VStem: 96 122<64 414 64 414 482 486 485.5 530.5> 420 122<66 650 650 650>
LayerCount: 2
Fore
SplineSet
505 744 m 1
 542 744 l 1
 542 66 l 1
 557 50 l 1
 615 44 l 1
 615 0 l 1
 350 0 l 1
 350 44 l 1
 404 50 l 1
 420 64 l 1
 420 650 l 1
 384 650 l 1
 353 613 l 1
 258 695 l 1
 230 665 218 612 218 534 c 2
 218 474 l 1
 353 474 l 1
 353 414 l 1
 218 414 l 1
 218 64 l 1
 234 49 l 1
 286 45 l 1
 286 0 l 1
 31 0 l 1
 31 45 l 1
 81 49 l 1
 96 64 l 1
 96 414 l 1
 31 414 l 1
 31 452 l 1
 96 482 l 2
 96 483 96 485 96 486 c 0
 96 575 126 644 188 695 c 0
 227 728 274 745 318 745 c 0
 362 745 390 729 403 696 c 1
 505 744 l 1
EndSplineSet
EndChar
